<svg width="140" height="40" viewBox="0 0 140 40" fill="none" xmlns="http://www.w3.org/2000/svg">
<mask id="mask0_554_982" style="mask-type:luminance" maskUnits="userSpaceOnUse" x="0" y="0" width="140" height="40">
<path d="M139.557 0H0.442993V40H139.557V0Z" fill="white"/>
</mask>
<g mask="url(#mask0_554_982)">
<path opacity="0.56" d="M13.8281 3.33333C13.8281 1.49167 15.1592 0 16.8026 0H18.2899C28.1466 0 36.1369 8.95417 36.1369 20V36.6667C36.1369 38.5083 34.8058 40 33.1624 40H31.6751C21.8184 40 13.8281 31.0458 13.8281 20V3.33333Z" fill="#4A6CF7"/>
<path opacity="0.88" d="M15.3155 39.9998C23.5293 39.9998 30.188 32.5379 30.188 23.3332C30.188 14.1284 23.5293 6.6665 15.3155 6.6665C7.10164 6.6665 0.442993 14.1284 0.442993 23.3332C0.442993 32.5379 7.10164 39.9998 15.3155 39.9998Z" fill="#4A6CF7"/>
<path d="M56.4763 31.7787H61.4385L54.4718 10H49.047L42.0859 31.7787H46.9913L48.1447 27.9317H55.3225L56.4763 31.7787ZM54.1179 23.8366H49.3783L51.7308 15.8635L54.1179 23.8366ZM70.5981 25.2947L67.0633 14.4674H61.827L68.0511 31.1893L64.5394 40H69.5871L79.1806 14.4674H74.1099L70.5981 25.2947ZM85.5591 23.7435C85.5591 20.7652 86.8496 19.8966 89.071 19.8966H90.3558V14.2813C88.3001 14.2813 86.6269 15.5223 85.5591 17.3526V14.4674H80.8709V31.7787H85.5591V23.7435ZM107.562 23.123C107.562 17.6318 104.112 14.2193 99.6126 14.2193C95.1468 14.2193 91.6637 17.6318 91.6637 23.123C91.6637 28.6143 95.0671 32.0269 99.5612 32.0269C104.055 32.0269 107.562 28.6143 107.562 23.123ZM96.4378 23.123C96.4378 20.1758 97.9167 18.8108 99.6126 18.8108C101.257 18.8108 102.794 20.1758 102.794 23.123C102.794 26.0393 101.234 27.4354 99.5612 27.4354C97.8591 27.4354 96.4378 26.0393 96.4378 23.123ZM117.714 23.8056C117.714 29.4209 120.947 31.9959 124.898 31.9959C128.844 31.9959 132.105 29.4209 132.105 23.8056V10.1551H129.609V23.8366C129.609 27.8077 127.747 29.514 124.921 29.514C122.1 29.514 120.209 27.8077 120.209 23.8366V10.1551H117.714V23.8056ZM136.268 31.7787H138.758V10.1551H136.268V31.7787Z" fill="#2D2D2D"/>
</g>
</svg>
