<svg width="30" height="30" viewBox="0 0 30 30" fill="none" xmlns="http://www.w3.org/2000/svg">
<mask id="mask0_539_186" style="mask-type:luminance" maskUnits="userSpaceOnUse" x="0" y="0" width="30" height="30">
<path d="M0 0H30V30H0V0Z" fill="white"/>
</mask>
<g mask="url(#mask0_539_186)">
<path fill-rule="evenodd" clip-rule="evenodd" d="M6.23109 0.00293732C4.51935 0.00293732 3.25272 1.88328 3.30942 3.92244C3.36387 5.88151 3.29313 8.41883 2.7842 10.488C2.27344 12.563 1.41023 13.8779 0 14.0466V15.9521C1.41023 16.1212 2.27344 17.4355 2.78414 19.5107C3.29313 21.5799 3.36381 24.1172 3.30936 26.0763C3.25266 28.1151 4.51929 29.9958 6.23133 29.9958H23.7712C25.483 29.9958 26.7494 28.1154 26.6926 26.0763C26.6382 24.1172 26.7089 21.5799 27.2179 19.5107C27.7286 17.4355 28.5897 16.1207 30 15.9521V14.0466C28.5898 13.8775 27.7287 12.5633 27.2179 10.488C26.7089 8.41909 26.6382 5.88151 26.6926 3.92244C26.7494 1.88355 25.483 0.00293732 23.7712 0.00293732H6.23109ZM20.339 18.4655C20.339 21.2733 18.6702 22.9762 15.9008 22.9762H11.1864C11.0516 22.9762 10.9223 22.909 10.8269 22.7893C10.7315 22.6696 10.678 22.5073 10.678 22.3381V7.66073C10.678 7.49149 10.7315 7.32914 10.8269 7.20949C10.9223 7.0898 11.0516 7.02259 11.1864 7.02259H15.8739C18.1832 7.02259 19.6987 8.59243 19.6987 11.0026C19.6987 12.6944 18.6792 14.2088 17.3803 14.4742V14.5624C19.1484 14.8058 20.339 16.3427 20.339 18.4655ZM15.3867 9.04548H12.6987V13.8107H14.9627C16.7129 13.8107 17.6779 12.9261 17.6779 11.3452C17.6777 9.86359 16.8481 9.04548 15.3867 9.04548ZM12.6987 15.7013V20.9526H15.4856C17.3079 20.9526 18.2731 20.035 18.2731 18.3104C18.2731 16.5858 17.2808 15.7011 15.3684 15.7011L12.6987 15.7013Z" fill="white" fill-opacity="0.5"/>
</g>
</svg>
