<svg width="11" height="10" viewBox="0 0 11 10" fill="none" xmlns="http://www.w3.org/2000/svg">
<path fill-rule="evenodd" clip-rule="evenodd" d="M1.2538 2.90376C1.28282 2.87466 1.31731 2.85157 1.35527 2.83581C1.39324 2.82006 1.43394 2.81195 1.47505 2.81195C1.51615 2.81195 1.55685 2.82006 1.59482 2.83581C1.63278 2.85157 1.66727 2.87466 1.6963 2.90376L5.22505 6.43313L8.7538 2.90376C8.78285 2.8747 8.81734 2.85166 8.85531 2.83593C8.89327 2.82021 8.93396 2.81211 8.97505 2.81211C9.01614 2.81211 9.05682 2.82021 9.09479 2.83593C9.13275 2.85166 9.16724 2.8747 9.1963 2.90376C9.22535 2.93281 9.2484 2.96731 9.26412 3.00527C9.27985 3.04323 9.28794 3.08392 9.28794 3.12501C9.28794 3.1661 9.27985 3.20679 9.26412 3.24475C9.2484 3.28271 9.22535 3.3172 9.1963 3.34626L5.4463 7.09626C5.41727 7.12536 5.38278 7.14845 5.34482 7.1642C5.30685 7.17996 5.26615 7.18807 5.22505 7.18807C5.18394 7.18807 5.14324 7.17996 5.10528 7.1642C5.06731 7.14845 5.03282 7.12536 5.0038 7.09626L1.2538 3.34626C1.22469 3.31723 1.2016 3.28275 1.18585 3.24478C1.1701 3.20681 1.16199 3.16611 1.16199 3.12501C1.16199 3.0839 1.1701 3.0432 1.18585 3.00524C1.2016 2.96727 1.22469 2.93279 1.2538 2.90376Z" fill="white"/>
</svg>
