<svg width="11" height="10" viewBox="0 0 10 10" fill="none" xmlns="http://www.w3.org/2000/svg">
<path fill-rule="evenodd" clip-rule="evenodd" d="M1.02874 2.90376C1.05777 2.87466 1.09226 2.85157 1.13022 2.83581C1.16819 2.82006 1.20889 2.81195 1.24999 2.81195C1.2911 2.81195 1.3318 2.82006 1.36977 2.83581C1.40773 2.85157 1.44222 2.87466 1.47124 2.90376L4.99999 6.43313L8.52874 2.90376C8.5578 2.8747 8.59229 2.85166 8.63025 2.83593C8.66822 2.82021 8.7089 2.81211 8.74999 2.81211C8.79108 2.81211 8.83177 2.82021 8.86973 2.83593C8.9077 2.85166 8.94219 2.8747 8.97124 2.90376C9.0003 2.93281 9.02335 2.96731 9.03907 3.00527C9.0548 3.04323 9.06289 3.08392 9.06289 3.12501C9.06289 3.1661 9.0548 3.20679 9.03907 3.24475C9.02335 3.28271 9.0003 3.3172 8.97124 3.34626L5.22124 7.09626C5.19222 7.12536 5.15773 7.14845 5.11976 7.1642C5.0818 7.17996 5.0411 7.18807 4.99999 7.18807C4.95889 7.18807 4.91819 7.17996 4.88022 7.1642C4.84226 7.14845 4.80777 7.12536 4.77874 7.09626L1.02874 3.34626C0.999642 3.31723 0.976553 3.28275 0.960799 3.24478C0.945045 3.20681 0.936935 3.16611 0.936935 3.12501C0.936935 3.0839 0.945045 3.0432 0.960799 3.00524C0.976553 2.96727 0.999642 2.93279 1.02874 2.90376Z" fill="black"/>
</svg>
