<svg width="50" height="55" viewBox="0 0 50 55" fill="currentColor" xmlns="http://www.w3.org/2000/svg">
<rect width="50" height="55" rx="8" fill="currentColor"/>
<path d="M15.625 15.4688C15.625 14.0183 16.1189 12.6273 16.9979 11.6018C17.877 10.5762 19.0693 10 20.3125 10C21.5557 10 22.748 10.5762 23.6271 11.6018C24.5061 12.6273 25 14.0183 25 15.4688C25 14.0183 25.4939 12.6273 26.3729 11.6018C27.252 10.5762 28.4443 10 29.6875 10C30.9307 10 32.123 10.5762 33.0021 11.6018C33.8811 12.6273 34.375 14.0183 34.375 15.4688V15.4819C34.375 15.635 34.375 16.0725 34.3037 16.5625H38.125C38.6223 16.5625 39.0992 16.793 39.4508 17.2032C39.8025 17.6134 40 18.1698 40 18.75V23.125C40 23.7052 39.8025 24.2616 39.4508 24.6718C39.0992 25.082 38.6223 25.3125 38.125 25.3125V41.7188C38.125 42.589 37.8287 43.4236 37.3012 44.0389C36.7738 44.6543 36.0584 45 35.3125 45H14.6875C13.9416 45 13.2262 44.6543 12.6988 44.0389C12.1713 43.4236 11.875 42.589 11.875 41.7188V25.3125C11.3777 25.3125 10.9008 25.082 10.5492 24.6718C10.1975 24.2616 10 23.7052 10 23.125V18.75C10 18.1698 10.1975 17.6134 10.5492 17.2032C10.9008 16.793 11.3777 16.5625 11.875 16.5625H15.6962C15.647 16.2052 15.6232 15.8438 15.625 15.4819V15.4688ZM17.6275 16.5625H23.125V15.4688C23.125 15.0378 23.0523 14.6112 22.9109 14.2131C22.7696 13.815 22.5624 13.4532 22.3012 13.1486C22.0401 12.8439 21.73 12.6022 21.3888 12.4373C21.0476 12.2724 20.6818 12.1875 20.3125 12.1875C19.9432 12.1875 19.5774 12.2724 19.2362 12.4373C18.895 12.6022 18.5849 12.8439 18.3238 13.1486C18.0626 13.4532 17.8554 13.815 17.7141 14.2131C17.5727 14.6112 17.5 15.0378 17.5 15.4688C17.5 15.6547 17.5038 16.0681 17.5844 16.4094L17.6275 16.5625ZM26.875 16.5625H32.3725L32.4156 16.4094C32.4963 16.0681 32.5 15.6547 32.5 15.4688C32.5 14.5985 32.2037 13.7639 31.6762 13.1486C31.1488 12.5332 30.4334 12.1875 29.6875 12.1875C28.9416 12.1875 28.2262 12.5332 27.6988 13.1486C27.1713 13.7639 26.875 14.5985 26.875 15.4688V16.5625ZM11.875 18.75V23.125H23.125V18.75H11.875ZM26.875 18.75V23.125H38.125V18.75H26.875ZM36.25 25.3125H26.875V42.8125H35.3125C35.5611 42.8125 35.7996 42.6973 35.9754 42.4921C36.1512 42.287 36.25 42.0088 36.25 41.7188V25.3125ZM23.125 42.8125V25.3125H13.75V41.7188C13.75 42.0088 13.8488 42.287 14.0246 42.4921C14.2004 42.6973 14.4389 42.8125 14.6875 42.8125H23.125Z" fill="currentColor"/>
</svg>
