<svg width="34" height="34" viewBox="0 0 34 34" fill="none" xmlns="http://www.w3.org/2000/svg">
<circle cx="16.725" cy="16.725" r="16.725" fill="#111827"/>
<path d="M19.8474 18.5651C18.3747 20.1423 16.6018 20.9317 14.5273 20.9317C12.4529 20.9317 10.6799 20.1437 9.20723 18.5651C7.73575 16.9878 7 15.0914 7 12.876C7 10.733 7.73575 8.88441 9.20842 7.33038C10.6799 5.77637 12.4529 5 14.5273 5H24.2295V9.69565H21.3858C21.8321 10.7071 22.0547 11.7677 22.0547 12.8748C22.0559 15.0914 21.3189 16.9878 19.8474 18.5651ZM21.0856 18.1866L25 20.1372C23.4615 23.7503 21.2866 26.2965 18.4764 27.7782C15.6662 29.2598 12.0198 30 7.53595 30L7.63645 25.2669C9.46444 25.2669 11.0101 25.17 12.2698 24.9776C13.5296 24.7838 14.7343 24.4363 15.8828 23.9299C17.0312 23.4235 18.0182 22.7065 18.8437 21.7803C19.6679 20.8529 20.4156 19.6553 21.0856 18.1866ZM16.652 10.7808C16.061 10.1788 15.3528 9.87779 14.5273 9.87779C13.7018 9.87779 12.9936 10.1788 12.4026 10.7808C11.8117 11.3827 11.5161 12.0816 11.5161 12.876C11.5161 13.7429 11.8117 14.4895 12.4026 15.116C12.9936 15.7426 13.7018 16.0552 14.5273 16.0552C15.3528 16.0552 16.061 15.7426 16.652 15.116C17.243 14.4908 17.5384 13.7429 17.5384 12.876C17.5384 12.0803 17.243 11.3827 16.652 10.7808Z" fill="white"/>
</svg>
