<svg width="34" height="35" viewBox="0 0 34 35" fill="none" xmlns="http://www.w3.org/2000/svg">
<circle cx="16.725" cy="17.4999" r="16.725" fill="white"/>
<path d="M19.8474 19.34C18.3747 20.9172 16.6018 21.7066 14.5273 21.7066C12.4529 21.7066 10.6799 20.9186 9.20723 19.34C7.73575 17.7627 7 15.8663 7 13.6509C7 11.5079 7.73575 9.65931 9.20842 8.10528C10.6799 6.55127 12.4529 5.7749 14.5273 5.7749H24.2295V10.4706H21.3858C21.8321 11.482 22.0547 12.5426 22.0547 13.6497C22.0559 15.8663 21.3189 17.7627 19.8474 19.34ZM21.0856 18.9615L25 20.9121C23.4615 24.5252 21.2866 27.0714 18.4764 28.5531C15.6662 30.0347 12.0198 30.7749 7.53595 30.7749L7.63645 26.0418C9.46444 26.0418 11.0101 25.945 12.2698 25.7525C13.5296 25.5587 14.7343 25.2112 15.8828 24.7048C17.0312 24.1984 18.0182 23.4814 18.8437 22.5552C19.6679 21.6278 20.4156 20.4302 21.0856 18.9615ZM16.652 11.5557C16.061 10.9537 15.3528 10.6527 14.5273 10.6527C13.7018 10.6527 12.9936 10.9537 12.4026 11.5557C11.8117 12.1576 11.5161 12.8565 11.5161 13.6509C11.5161 14.5178 11.8117 15.2644 12.4026 15.8909C12.9936 16.5175 13.7018 16.8301 14.5273 16.8301C15.3528 16.8301 16.061 16.5175 16.652 15.8909C17.243 15.2657 17.5384 14.5178 17.5384 13.6509C17.5384 12.8552 17.243 12.1576 16.652 11.5557Z" fill="#1d4ed8"/>
</svg>
