<svg width="150" height="40" viewBox="0 0 150 40" fill="none" xmlns="http://www.w3.org/2000/svg">
<mask id="mask0_554_922" style="mask-type:luminance" maskUnits="userSpaceOnUse" x="0" y="0" width="150" height="40">
<path d="M149.569 0H0.43103V40H149.569V0Z" fill="white"/>
</mask>
<g mask="url(#mask0_554_922)">
<path d="M31.4655 20C31.4655 10.0589 24.5182 2 15.9483 2C7.37833 2 0.43103 10.0589 0.43103 20C0.43103 29.9411 7.37833 38 15.9483 38C24.5182 38 31.4655 29.9411 31.4655 20Z" fill="url(#paint0_linear_554_922)"/>
<path d="M31.4655 20C31.4655 10.0589 24.5182 2 15.9483 2C7.37833 2 0.43103 10.0589 0.43103 20C0.43103 29.9411 7.37833 38 15.9483 38C24.5182 38 31.4655 29.9411 31.4655 20Z" fill="url(#paint1_linear_554_922)" fill-opacity="0.56"/>
<path d="M16.1952 8.75C18.6525 8.75 20.9721 9.80311 22.7672 11.7231C22.8667 11.8295 22.8677 12.0103 22.772 12.1213L18.9725 16.5288C18.8805 16.6356 18.7326 16.6382 18.632 16.5425C17.9458 15.8908 17.0943 15.5369 16.1968 15.5369C14.0722 15.5352 12.3447 17.5391 12.3447 20H6.49243C6.49243 13.7967 10.846 8.75 16.1952 8.75Z" fill="white"/>
<path d="M12.3447 20C12.3447 22.3097 13.8661 24.2161 15.8082 24.4424C15.9376 24.4575 16.0407 24.5806 16.0407 24.7316V30.9643C16.0407 31.1213 15.9291 31.2483 15.7938 31.2419C10.6288 30.9964 6.49243 26.0475 6.49243 20H12.3447Z" fill="white"/>
<path opacity="0.56" d="M21.961 20.8931H19.6728C19.5388 20.8931 19.4303 21.0191 19.4303 21.1744V23.8269C19.4303 23.9823 19.5388 24.1082 19.6728 24.1082H21.961C22.0949 24.1082 22.2034 23.9823 22.2034 23.8269V21.1744C22.2034 21.0191 22.0949 20.8931 21.961 20.8931Z" fill="white"/>
<path opacity="0.4" d="M25.0404 20.8931H22.7522C22.6183 20.8931 22.5098 21.0191 22.5098 21.1744V23.8269C22.5098 23.9823 22.6183 24.1082 22.7522 24.1082H25.0404C25.1742 24.1082 25.2829 23.9823 25.2829 23.8269V21.1744C25.2829 21.0191 25.1742 20.8931 25.0404 20.8931Z" fill="white"/>
<path opacity="0.72" d="M21.961 24.4648H19.6728C19.5388 24.4648 19.4303 24.5907 19.4303 24.746V27.3986C19.4303 27.5539 19.5388 27.6798 19.6728 27.6798H21.961C22.0949 27.6798 22.2034 27.5539 22.2034 27.3986V24.746C22.2034 24.5907 22.0949 24.4648 21.961 24.4648Z" fill="white"/>
<path opacity="0.88" d="M18.8805 24.4648H16.5923C16.4584 24.4648 16.3499 24.5907 16.3499 24.746V27.3986C16.3499 27.5539 16.4584 27.6798 16.5923 27.6798H18.8805C19.0144 27.6798 19.123 27.5539 19.123 27.3986V24.746C19.123 24.5907 19.0144 24.4648 18.8805 24.4648Z" fill="white"/>
<path opacity="0.56" d="M25.0404 24.4648H22.7522C22.6183 24.4648 22.5098 24.5907 22.5098 24.746V27.3986C22.5098 27.5539 22.6183 27.6798 22.7522 27.6798H25.0404C25.1742 27.6798 25.2829 27.5539 25.2829 27.3986V24.746C25.2829 24.5907 25.1742 24.4648 25.0404 24.4648Z" fill="white"/>
<path opacity="0.88" d="M21.961 28.0347H19.6728C19.5388 28.0347 19.4303 28.1606 19.4303 28.3159V30.9685C19.4303 31.1238 19.5388 31.2497 19.6728 31.2497H21.961C22.0949 31.2497 22.2034 31.1238 22.2034 30.9685V28.3159C22.2034 28.1606 22.0949 28.0347 21.961 28.0347Z" fill="white"/>
<path opacity="0.96" d="M18.8805 28.0347H16.5923C16.4584 28.0347 16.3499 28.1606 16.3499 28.3159V30.9685C16.3499 31.1238 16.4584 31.2497 16.5923 31.2497H18.8805C19.0144 31.2497 19.123 31.1238 19.123 30.9685V28.3159C19.123 28.1606 19.0144 28.0347 18.8805 28.0347Z" fill="white"/>
<path opacity="0.72" d="M25.0404 28.0347H22.7522C22.6183 28.0347 22.5098 28.1606 22.5098 28.3159V30.9685C22.5098 31.1238 22.6183 31.2497 22.7522 31.2497H25.0404C25.1742 31.2497 25.2829 31.1238 25.2829 30.9685V28.3159C25.2829 28.1606 25.1742 28.0347 25.0404 28.0347Z" fill="white"/>
<path d="M49.5188 12.125H51.9628V28.379C51.9628 29.4185 51.7543 30.3845 51.3372 31.277C50.9299 32.18 50.3771 32.9622 49.6788 33.6238C48.9805 34.2957 48.1853 34.8155 47.293 35.183C46.4008 35.561 45.4698 35.75 44.4999 35.75C43.4913 35.75 42.5167 35.5033 41.5759 35.0098C40.6352 34.5268 39.8108 33.8757 39.1029 33.0567C38.4046 32.2482 37.9003 31.34 37.5899 30.332L39.8302 29.2295C40.0145 29.954 40.3443 30.605 40.8194 31.1825C41.3043 31.7705 41.8668 32.2325 42.5069 32.5685C43.1568 32.915 43.8211 33.0882 44.4999 33.0882C45.14 33.0882 45.7559 32.9675 46.3474 32.726C46.9487 32.4845 47.487 32.1485 47.9622 31.718C48.4471 31.298 48.8254 30.7993 49.0969 30.2218C49.3781 29.6548 49.5188 29.0405 49.5188 28.379V25.2447C49.0242 26.1477 48.3695 26.8827 47.5549 27.4497C46.7499 28.0063 45.8092 28.2845 44.7327 28.2845C43.7047 28.2845 42.7397 28.0693 41.8378 27.6388C40.9358 27.2083 40.1454 26.615 39.4665 25.859C38.7876 25.0925 38.2543 24.2105 37.8663 23.213C37.4784 22.2155 37.2844 21.1445 37.2844 20C37.2844 18.8555 37.4784 17.7845 37.8663 16.787C38.2543 15.779 38.7876 14.897 39.4665 14.141C40.1454 13.3745 40.9358 12.776 41.8378 12.3455C42.7397 11.915 43.7047 11.6997 44.7327 11.6997C45.8092 11.6997 46.7499 11.978 47.5549 12.5345C48.3695 13.091 49.0242 13.826 49.5188 14.7395V12.125ZM44.7473 25.7173C45.688 25.7173 46.5026 25.4548 47.1912 24.9298C47.8895 24.4048 48.4277 23.7065 48.806 22.835C49.1842 21.9635 49.3733 21.0185 49.3733 20C49.3733 18.95 49.1793 17.9945 48.7914 17.1335C48.4132 16.262 47.8749 15.569 47.1767 15.0545C46.488 14.5295 45.6783 14.267 44.7473 14.267C43.8356 14.267 43.0016 14.5243 42.2451 15.0388C41.4886 15.5533 40.8874 16.2463 40.4412 17.1178C40.0048 17.9788 39.7866 18.9395 39.7866 20C39.7866 21.0605 40.0096 22.0265 40.4558 22.898C40.9116 23.759 41.5129 24.4468 42.2596 24.9613C43.0161 25.4653 43.8453 25.7173 44.7473 25.7173Z" fill="#1E1983"/>
<path d="M54.2969 27.8751V12.1251H56.7408V14.0939C57.2549 13.3589 57.9046 12.7761 58.6902 12.3456C59.4758 11.9046 60.3292 11.6841 61.2506 11.6841C61.8131 11.6841 62.3562 11.7628 62.8799 11.9203L61.8907 14.5664C61.493 14.4299 61.1051 14.3616 60.7269 14.3616C59.9995 14.3616 59.3303 14.5559 58.7193 14.9444C58.118 15.3224 57.6379 15.8369 57.2791 16.4879C56.9202 17.1389 56.7408 17.8634 56.7408 18.6614V27.8751H54.2969Z" fill="#1E1983"/>
<path d="M74.4611 12.1251H76.905V27.8751H74.4611L74.3592 25.2134C73.9034 26.1269 73.273 26.8671 72.468 27.4341C71.6728 28.0011 70.7224 28.2846 69.6167 28.2846C68.5499 28.2846 67.5511 28.0694 66.62 27.6389C65.689 27.1979 64.8646 26.5941 64.1469 25.8276C63.439 25.0506 62.8861 24.1581 62.4886 23.1501C62.0909 22.1421 61.8921 21.0554 61.8921 19.8899C61.8921 18.7664 62.0861 17.7059 62.474 16.7084C62.8619 15.7109 63.4002 14.8394 64.0887 14.0939C64.787 13.3379 65.592 12.7499 66.5036 12.3299C67.4153 11.8993 68.3948 11.6841 69.4422 11.6841C70.5866 11.6841 71.5904 11.9781 72.4536 12.5661C73.3167 13.1436 74.0149 13.8944 74.5484 14.8184L74.4611 12.1251ZM69.5731 25.7174C70.5333 25.7174 71.3624 25.4654 72.0607 24.9614C72.7687 24.4469 73.3118 23.7539 73.69 22.8824C74.078 22.0109 74.2719 21.0501 74.2719 20.0001C74.2719 18.9291 74.078 17.9631 73.69 17.1021C73.3021 16.2306 72.7542 15.5429 72.0462 15.0389C71.348 14.5244 70.5236 14.2671 69.5731 14.2671C68.613 14.2671 67.7402 14.5244 66.9546 15.0389C66.1691 15.5534 65.5435 16.2464 65.078 17.1179C64.6222 17.9789 64.3942 18.9396 64.3942 20.0001C64.3942 21.0606 64.6318 22.0266 65.1071 22.8981C65.5823 23.7591 66.2127 24.4469 66.9982 24.9614C67.7838 25.4654 68.6421 25.7174 69.5731 25.7174Z" fill="#1E1983"/>
<path d="M88.1595 12.125H90.7491L82.7912 35.75H80.2017L82.8348 27.875L77.6123 12.125H80.289L84.0568 24.2367L88.1595 12.125Z" fill="#1E1983"/>
<path d="M103.11 12.125H105.554V28.379C105.554 29.4185 105.346 30.3845 104.928 31.277C104.522 32.18 103.968 32.9622 103.27 33.6238C102.572 34.2957 101.777 34.8155 100.884 35.183C99.9922 35.561 99.0612 35.75 98.0914 35.75C97.0828 35.75 96.1077 35.5033 95.1672 35.0098C94.2267 34.5268 93.4026 33.8757 92.694 33.0567C91.9957 32.2482 91.4914 31.34 91.181 30.332L93.4215 29.2295C93.606 29.954 93.9353 30.605 94.4112 31.1825C94.8957 31.7705 95.4586 32.2325 96.0983 32.5685C96.7483 32.915 97.4121 33.0882 98.0914 33.0882C98.731 33.0882 99.3474 32.9675 99.9388 32.726C100.541 32.4845 101.078 32.1485 101.553 31.718C102.039 31.298 102.416 30.7993 102.688 30.2218C102.97 29.6548 103.11 29.0405 103.11 28.379V25.2447C102.616 26.1477 101.961 26.8827 101.147 27.4497C100.341 28.0063 99.4009 28.2845 98.3241 28.2845C97.2957 28.2845 96.331 28.0693 95.4293 27.6388C94.5276 27.2083 93.7371 26.615 93.0577 25.859C92.3793 25.0925 91.8457 24.2105 91.4578 23.213C91.0698 22.2155 90.8759 21.1445 90.8759 20C90.8759 18.8555 91.0698 17.7845 91.4578 16.787C91.8457 15.779 92.3793 14.897 93.0577 14.141C93.7371 13.3745 94.5276 12.776 95.4293 12.3455C96.331 11.915 97.2957 11.6997 98.3241 11.6997C99.4009 11.6997 100.341 11.978 101.147 12.5345C101.961 13.091 102.616 13.826 103.11 14.7395V12.125ZM98.3388 25.7173C99.2793 25.7173 100.094 25.4548 100.783 24.9298C101.481 24.4048 102.019 23.7065 102.397 22.835C102.776 21.9635 102.965 21.0185 102.965 20C102.965 18.95 102.771 17.9945 102.383 17.1335C102.004 16.262 101.466 15.569 100.768 15.0545C100.079 14.5295 99.2698 14.267 98.3388 14.267C97.4267 14.267 96.5931 14.5243 95.8362 15.0388C95.0802 15.5533 94.4784 16.2463 94.0328 17.1178C93.5965 17.9788 93.3776 18.9395 93.3776 20C93.3776 21.0605 93.6009 22.0265 94.0474 22.898C94.5026 23.759 95.1043 24.4468 95.8509 24.9613C96.6077 25.4653 97.4371 25.7173 98.3388 25.7173Z" fill="#1E1983"/>
<path d="M107.888 27.8751V12.1251H110.332V14.0939C110.847 13.3589 111.496 12.7761 112.282 12.3456C113.067 11.9046 113.921 11.6841 114.842 11.6841C115.404 11.6841 115.947 11.7628 116.472 11.9203L115.482 14.5664C115.084 14.4299 114.697 14.3616 114.318 14.3616C113.591 14.3616 112.922 14.5559 112.31 14.9444C111.709 15.3224 111.229 15.8369 110.871 16.4879C110.512 17.1389 110.332 17.8634 110.332 18.6614V27.8751H107.888Z" fill="#1E1983"/>
<path d="M117.095 12.1252H119.539V27.8752H117.095V12.1252ZM118.346 9.55791C117.959 9.55791 117.634 9.42141 117.371 9.14841C117.109 8.87541 116.978 8.53416 116.978 8.12466C116.978 7.71516 117.109 7.37391 117.371 7.10091C117.634 6.82791 117.953 6.69141 118.332 6.69141C118.71 6.69141 119.03 6.82791 119.292 7.10091C119.553 7.37391 119.684 7.71516 119.684 8.12466C119.684 8.53416 119.553 8.87541 119.292 9.14841C119.04 9.42141 118.724 9.55791 118.346 9.55791Z" fill="#1E1983"/>
<path d="M133.382 4.25H135.826V27.875H133.382V25.1975C132.887 26.1215 132.222 26.867 131.389 27.434C130.554 28.001 129.575 28.2845 128.45 28.2845C127.393 28.2845 126.404 28.0693 125.482 27.6388C124.561 27.2083 123.747 26.615 123.038 25.859C122.34 25.0925 121.792 24.2105 121.395 23.213C120.997 22.2155 120.798 21.1445 120.798 20C120.798 18.8555 120.997 17.7845 121.395 16.787C121.792 15.779 122.34 14.897 123.038 14.141C123.747 13.3745 124.561 12.776 125.482 12.3455C126.404 11.915 127.393 11.6997 128.45 11.6997C129.575 11.6997 130.554 11.9832 131.389 12.5503C132.222 13.1173 132.887 13.8628 133.382 14.7868V4.25ZM128.479 25.7173C129.439 25.7173 130.268 25.4653 130.966 24.9613C131.675 24.4468 132.218 23.7538 132.596 22.8823C132.984 22.0108 133.178 21.05 133.178 20C133.178 18.929 132.984 17.963 132.596 17.102C132.208 16.2305 131.66 15.5428 130.952 15.0388C130.254 14.5243 129.429 14.267 128.479 14.267C127.519 14.267 126.646 14.5243 125.86 15.0388C125.085 15.5533 124.464 16.2463 123.998 17.1178C123.533 17.9788 123.3 18.9395 123.3 20C123.3 21.0605 123.538 22.0265 124.013 22.898C124.488 23.759 125.119 24.4468 125.904 24.9613C126.69 25.4653 127.548 25.7173 128.479 25.7173Z" fill="#1E1983"/>
<path d="M142.589 28.1741C141.803 28.1426 141.037 27.9852 140.29 27.7016C139.553 27.4077 138.904 27.0139 138.341 26.5204C137.788 26.0164 137.385 25.4389 137.133 24.7879L139.228 23.8114C139.373 24.1684 139.635 24.5044 140.014 24.8194C140.391 25.1344 140.829 25.3864 141.322 25.5754C141.817 25.7644 142.317 25.8589 142.822 25.8589C143.354 25.8589 143.854 25.7697 144.32 25.5912C144.785 25.4127 145.163 25.1502 145.454 24.8037C145.755 24.4467 145.905 24.0214 145.905 23.5279C145.905 23.0029 145.741 22.5934 145.41 22.2994C145.091 21.9949 144.684 21.7586 144.189 21.5906C143.704 21.4122 143.21 21.2441 142.705 21.0867C141.706 20.8136 140.814 20.4882 140.028 20.1102C139.242 19.7217 138.622 19.2334 138.166 18.6454C137.72 18.0469 137.497 17.2857 137.497 16.3617C137.497 15.3852 137.744 14.5399 138.239 13.8259C138.743 13.1119 139.403 12.5607 140.217 12.1722C141.032 11.7836 141.904 11.5894 142.835 11.5894C144.01 11.5894 145.081 11.8624 146.051 12.4084C147.021 12.9544 147.743 13.6947 148.218 14.6292L146.254 15.8734C146.09 15.4954 145.837 15.1647 145.498 14.8812C145.159 14.5872 144.771 14.3562 144.335 14.1882C143.897 14.0202 143.452 13.9309 142.996 13.9204C142.434 13.8994 141.904 13.9782 141.41 14.1567C140.925 14.3352 140.533 14.6082 140.232 14.9756C139.941 15.3327 139.796 15.7789 139.796 16.3144C139.796 16.8394 139.951 17.2384 140.261 17.5114C140.581 17.7844 140.993 18.0049 141.497 18.1729C142.011 18.3304 142.569 18.5142 143.171 18.7242C144.053 19.0287 144.878 19.3804 145.643 19.7794C146.41 20.1784 147.025 20.6772 147.491 21.2757C147.966 21.8742 148.199 22.6144 148.189 23.4964C148.189 24.4624 147.922 25.3077 147.389 26.0322C146.856 26.7462 146.162 27.2921 145.309 27.6701C144.465 28.0482 143.559 28.2161 142.589 28.1741Z" fill="#1E1983"/>
</g>
<defs>
<linearGradient id="paint0_linear_554_922" x1="15.9483" y1="2" x2="15.9483" y2="38" gradientUnits="userSpaceOnUse">
<stop stop-color="#3558EA"/>
<stop offset="1" stop-color="#0000FF"/>
</linearGradient>
<linearGradient id="paint1_linear_554_922" x1="20.077" y1="7.22943" x2="2.30534" y2="52.8778" gradientUnits="userSpaceOnUse">
<stop offset="0.215628" stop-color="#1E1983" stop-opacity="0"/>
<stop offset="0.447191" stop-color="#1E1983" stop-opacity="0.19"/>
<stop offset="0.619792" stop-color="#1E1983"/>
</linearGradient>
</defs>
</svg>
