<svg width="50" height="55" viewBox="0 0 50 55" fill="none" xmlns="http://www.w3.org/2000/svg">
<rect width="50" height="55" rx="8" fill="#6e56fe"/>
<path d="M10 13.75C10 12.7554 10.3386 11.8016 10.9414 11.0983C11.5442 10.3951 12.3618 10 13.2143 10H19.6429C20.4953 10 21.3129 10.3951 21.9157 11.0983C22.5185 11.8016 22.8571 12.7554 22.8571 13.75V21.25C22.8571 22.2446 22.5185 23.1984 21.9157 23.9017C21.3129 24.6049 20.4953 25 19.6429 25H13.2143C12.3618 25 11.5442 24.6049 10.9414 23.9017C10.3386 23.1984 10 22.2446 10 21.25V13.75ZM13.2143 12.5C12.9301 12.5 12.6576 12.6317 12.4567 12.8661C12.2557 13.1005 12.1429 13.4185 12.1429 13.75V21.25C12.1429 21.5815 12.2557 21.8995 12.4567 22.1339C12.6576 22.3683 12.9301 22.5 13.2143 22.5H19.6429C19.927 22.5 20.1995 22.3683 20.4005 22.1339C20.6014 21.8995 20.7143 21.5815 20.7143 21.25V13.75C20.7143 13.4185 20.6014 13.1005 20.4005 12.8661C20.1995 12.6317 19.927 12.5 19.6429 12.5H13.2143ZM27.1429 13.75C27.1429 12.7554 27.4815 11.8016 28.0843 11.0983C28.6871 10.3951 29.5047 10 30.3571 10H36.7857C37.6382 10 38.4558 10.3951 39.0586 11.0983C39.6614 11.8016 40 12.7554 40 13.75V21.25C40 22.2446 39.6614 23.1984 39.0586 23.9017C38.4558 24.6049 37.6382 25 36.7857 25H30.3571C29.5047 25 28.6871 24.6049 28.0843 23.9017C27.4815 23.1984 27.1429 22.2446 27.1429 21.25V13.75ZM30.3571 12.5C30.073 12.5 29.8005 12.6317 29.5995 12.8661C29.3986 13.1005 29.2857 13.4185 29.2857 13.75V21.25C29.2857 21.5815 29.3986 21.8995 29.5995 22.1339C29.8005 22.3683 30.073 22.5 30.3571 22.5H36.7857C37.0699 22.5 37.3424 22.3683 37.5433 22.1339C37.7443 21.8995 37.8571 21.5815 37.8571 21.25V13.75C37.8571 13.4185 37.7443 13.1005 37.5433 12.8661C37.3424 12.6317 37.0699 12.5 36.7857 12.5H30.3571ZM10 33.75C10 32.7554 10.3386 31.8016 10.9414 31.0983C11.5442 30.3951 12.3618 30 13.2143 30H19.6429C20.4953 30 21.3129 30.3951 21.9157 31.0983C22.5185 31.8016 22.8571 32.7554 22.8571 33.75V41.25C22.8571 42.2446 22.5185 43.1984 21.9157 43.9016C21.3129 44.6049 20.4953 45 19.6429 45H13.2143C12.3618 45 11.5442 44.6049 10.9414 43.9016C10.3386 43.1984 10 42.2446 10 41.25V33.75ZM13.2143 32.5C12.9301 32.5 12.6576 32.6317 12.4567 32.8661C12.2557 33.1005 12.1429 33.4185 12.1429 33.75V41.25C12.1429 41.5815 12.2557 41.8995 12.4567 42.1339C12.6576 42.3683 12.9301 42.5 13.2143 42.5H19.6429C19.927 42.5 20.1995 42.3683 20.4005 42.1339C20.6014 41.8995 20.7143 41.5815 20.7143 41.25V33.75C20.7143 33.4185 20.6014 33.1005 20.4005 32.8661C20.1995 32.6317 19.927 32.5 19.6429 32.5H13.2143ZM27.1429 33.75C27.1429 32.7554 27.4815 31.8016 28.0843 31.0983C28.6871 30.3951 29.5047 30 30.3571 30H36.7857C37.6382 30 38.4558 30.3951 39.0586 31.0983C39.6614 31.8016 40 32.7554 40 33.75V41.25C40 42.2446 39.6614 43.1984 39.0586 43.9016C38.4558 44.6049 37.6382 45 36.7857 45H30.3571C29.5047 45 28.6871 44.6049 28.0843 43.9016C27.4815 43.1984 27.1429 42.2446 27.1429 41.25V33.75ZM30.3571 32.5C30.073 32.5 29.8005 32.6317 29.5995 32.8661C29.3986 33.1005 29.2857 33.4185 29.2857 33.75V41.25C29.2857 41.5815 29.3986 41.8995 29.5995 42.1339C29.8005 42.3683 30.073 42.5 30.3571 42.5H36.7857C37.0699 42.5 37.3424 42.3683 37.5433 42.1339C37.7443 41.8995 37.8571 41.5815 37.8571 41.25V33.75C37.8571 33.4185 37.7443 33.1005 37.5433 32.8661C37.3424 32.6317 37.0699 32.5 36.7857 32.5H30.3571Z" fill="white"/>
</svg>
