<svg width="50" height="55" viewBox="0 0 50 55" fill="none" xmlns="http://www.w3.org/2000/svg">
<rect width="50" height="55" rx="8" fill="#6e56fe"/>
<path d="M25.4416 10.158C25.3059 10.0542 25.1546 10 25.0009 10C24.8473 10 24.6959 10.0542 24.5603 10.158L10.4976 20.9277C10.3478 21.0426 10.2226 21.2138 10.1353 21.4229C10.048 21.632 10.0019 21.8713 10.0019 22.1151C10.0019 22.3589 10.048 22.5982 10.1353 22.8073C10.2226 23.0164 10.3478 23.1876 10.4976 23.3025L15.9783 27.5L10.4957 31.6975C10.3459 31.8124 10.2207 31.9836 10.1334 32.1927C10.0461 32.4018 10 32.6411 10 32.8849C10 33.1287 10.0461 33.368 10.1334 33.5771C10.2207 33.7862 10.3459 33.9574 10.4957 34.0723L24.5584 44.842C24.6941 44.9458 24.8454 45 24.9991 45C25.1527 45 25.3041 44.9458 25.4397 44.842L39.5024 34.0723C39.6522 33.9574 39.7774 33.7862 39.8647 33.5771C39.952 33.368 39.9981 33.1287 39.9981 32.8849C39.9981 32.6411 39.952 32.4018 39.8647 32.1927C39.7774 31.9836 39.6522 31.8124 39.5024 31.6975L34.0255 27.5L39.5043 23.3025C39.6541 23.1876 39.7793 23.0164 39.8666 22.8073C39.9539 22.5982 40 22.3589 40 22.1151C40 21.8713 39.9539 21.632 39.8666 21.4229C39.7793 21.2138 39.6541 21.0426 39.5043 20.9277L25.4416 10.158ZM32.0323 29.0266L37.0724 32.8849L25.0009 42.1281L12.9295 32.8849L17.9696 29.0266L24.5603 34.0723C24.6959 34.176 24.8473 34.2302 25.0009 34.2302C25.1546 34.2302 25.3059 34.176 25.4416 34.0723L32.0323 29.0266ZM25.0009 31.3583L12.9295 22.1151L25.0009 12.8719L37.0724 22.1151L25.0009 31.3583Z" fill="white"/>
</svg>
