<svg width="50" height="55" viewBox="0 0 50 55" fill="none" xmlns="http://www.w3.org/2000/svg">
<rect width="50" height="55" rx="8" fill="#6e56fe"/>
<path d="M13.75 10C12.7554 10 11.8016 10.4609 11.0983 11.2814C10.3951 12.1019 10 13.2147 10 14.375V40.625C10 41.7853 10.3951 42.8981 11.0983 43.7186C11.8016 44.5391 12.7554 45 13.75 45H36.25C37.2446 45 38.1984 44.5391 38.9016 43.7186C39.6049 42.8981 40 41.7853 40 40.625V14.375C40 13.2147 39.6049 12.1019 38.9016 11.2814C38.1984 10.4609 37.2446 10 36.25 10H13.75ZM36.25 12.1875C36.7473 12.1875 37.2242 12.418 37.5758 12.8282C37.9275 13.2384 38.125 13.7948 38.125 14.375V16.5625H11.875V14.375C11.875 13.7948 12.0725 13.2384 12.4242 12.8282C12.7758 12.418 13.2527 12.1875 13.75 12.1875H36.25ZM38.125 18.75V40.625C38.125 41.2052 37.9275 41.7616 37.5758 42.1718C37.2242 42.582 36.7473 42.8125 36.25 42.8125H32.5V18.75H38.125ZM30.625 18.75V42.8125H13.75C13.2527 42.8125 12.7758 42.582 12.4242 42.1718C12.0725 41.7616 11.875 41.2052 11.875 40.625V18.75H30.625Z" fill="white"/>
</svg>
