<svg width="160" height="40" viewBox="0 0 160 40" fill="none" xmlns="http://www.w3.org/2000/svg">
<mask id="mask0_554_948" style="mask-type:luminance" maskUnits="userSpaceOnUse" x="1" y="5" width="158" height="30">
<path d="M158.723 5H1.27661V35H158.723V5Z" fill="white"/>
</mask>
<g mask="url(#mask0_554_948)">
<mask id="mask1_554_948" style="mask-type:luminance" maskUnits="userSpaceOnUse" x="1" y="5" width="158" height="30">
<path d="M158.255 5H1.27661V35H158.255V5Z" fill="white"/>
</mask>
<g mask="url(#mask1_554_948)">
<path d="M38.7364 7.30566H35.0333V32.1453H47.5914V28.1377H38.7364V7.30566Z" fill="#1C2033"/>
<path d="M51.8402 11.9924C52.9966 11.9924 53.9517 10.8702 53.9517 9.47328C53.9517 8.07634 52.9966 7 51.8402 7C50.6254 7 49.6703 8.0916 49.6703 9.48092C49.6703 10.8702 50.6318 11.9924 51.8402 11.9924ZM50.0861 32.145H53.6138V15.3511H50.0861V32.145Z" fill="#1C2033"/>
<path d="M60.7861 32.1449V23.1068C60.7861 20.3892 62.1114 18.6182 64.2878 18.6182C66.1133 18.6182 67.2958 19.977 67.2958 22.8014V32.1526H70.8234V21.809C70.8234 17.4579 68.9719 14.8472 65.3857 14.8472C63.4497 14.8472 61.7151 15.8319 60.8186 17.5342L60.5263 15.3587H57.2584V32.1526H60.7861V32.1449Z" fill="#1C2033"/>
<path d="M80.6854 32.5879C84.4145 32.5879 87.0196 30.3818 87.6239 26.7024H84.356C83.9468 28.2978 82.6799 29.1833 80.7374 29.1833C78.3921 29.1833 77.0668 27.6871 76.8069 24.7329L87.5651 24.6948V23.4429C87.5651 18.2062 84.8433 14.8398 80.562 14.8398C76.3716 14.8398 73.4481 18.4734 73.4481 23.7482C73.4481 28.9467 76.4301 32.5879 80.6854 32.5879ZM80.5945 18.2444C82.7059 18.2444 84.0637 19.7711 84.0637 22.0841H76.8914C77.2357 19.5726 78.5091 18.2444 80.5945 18.2444Z" fill="#1C2033"/>
<path d="M92.1524 11.9924C93.3082 11.9924 94.2631 10.8702 94.2631 9.47328C94.2631 8.07634 93.3082 7 92.1524 7C90.9371 7 89.989 8.0916 89.989 9.48092C89.989 10.8702 90.9303 11.9924 92.1524 11.9924ZM90.3848 32.145H93.9124V15.3511H90.3848V32.145Z" fill="#1C2033"/>
<path d="M96.726 23.7174C96.726 29.0533 99.5583 32.5877 103.898 32.5877C107.627 32.5877 110.408 29.9006 110.837 25.9923H107.277C106.9 27.8319 105.659 28.8472 103.891 28.8472C101.637 28.8472 100.247 26.8777 100.247 23.7174C100.247 20.5571 101.754 18.5495 104.009 18.5495C105.684 18.5495 106.873 19.5342 107.277 21.4426H110.804C110.427 17.3968 107.763 14.8472 103.866 14.8472C99.6494 14.8472 96.726 18.519 96.726 23.7174Z" fill="#1C2033"/>
<path d="M112.623 23.7176C112.623 28.9543 115.832 32.5573 120.263 32.5573C124.688 32.5573 127.903 28.9619 127.903 23.7176C127.903 18.481 124.694 14.8779 120.263 14.8779C115.839 14.8856 112.623 18.481 112.623 23.7176ZM116.158 23.7176C116.158 20.6566 117.833 18.5879 120.263 18.5879C122.693 18.5879 124.369 20.6642 124.369 23.7176C124.369 26.7711 122.693 28.8474 120.263 28.8474C117.833 28.855 116.158 26.7787 116.158 23.7176Z" fill="#1C2033"/>
<path d="M134.218 32.1449V23.1068C134.218 20.3892 135.543 18.6182 137.72 18.6182C139.545 18.6182 140.728 19.977 140.728 22.8014V32.1526H144.255V21.809C144.255 17.4579 142.403 14.8472 138.818 14.8472C136.882 14.8472 135.147 15.8319 134.25 17.5342L133.958 15.3587H130.69V32.1526H134.218V32.1449Z" fill="#1C2033"/>
<path d="M158.255 27.0839C158.255 30.4808 155.8 32.5953 152.272 32.5953C148.712 32.5953 146.464 30.3434 146.458 27.061H149.803C149.83 28.519 150.758 29.4426 152.376 29.4426C154.02 29.4426 154.923 28.6564 154.923 27.435C154.923 26.58 154.552 25.977 153.279 25.6335L150.7 24.9159C148.128 24.2365 146.887 22.809 146.887 20.122C146.887 16.8243 149.251 14.8472 152.552 14.8472C155.761 14.8472 157.924 17.0304 157.957 20.29H154.604C154.585 18.8625 153.767 17.9464 152.409 17.9464C151.025 17.9464 150.213 18.6945 150.213 19.9464C150.213 20.9006 150.856 21.5037 152.065 21.8472L154.643 22.5648C156.859 23.1526 158.074 24.3129 158.236 26.519L158.255 27.0839Z" fill="#1C2033"/>
<path d="M21.4616 31.4524C22.3906 30.3608 22.3906 28.5974 21.4616 27.5058L5.33033 8.55161C4.4013 7.46001 2.90057 7.46001 1.97155 8.55161C1.04252 9.64322 1.04252 11.4066 1.97155 12.4982L18.1028 31.4524C19.0318 32.544 20.5325 32.544 21.4616 31.4524Z" fill="#6566FF"/>
<path d="M21.0328 17.4599C21.9618 16.3683 21.9618 14.605 21.0328 13.5134L14.4842 5.8187C13.5551 4.7271 12.0544 4.7271 11.1254 5.8187C10.1963 6.91031 10.1963 8.67366 11.1254 9.76527L17.674 17.4599C18.6031 18.5439 20.1037 18.5439 21.0328 17.4599Z" fill="#6566FF"/>
<path d="M12.3078 34.1851C13.2368 33.0935 13.2368 31.3301 12.3078 30.2385L5.75915 22.5438C4.83013 21.4522 3.3294 21.4522 2.40038 22.5438C1.47136 23.6354 1.47136 25.3988 2.40038 26.4904L8.94902 34.1851C9.87804 35.2767 11.3788 35.2767 12.3078 34.1851Z" fill="#6566FF"/>
</g>
</g>
</svg>
