<svg width="35" height="51" viewBox="0 0 35 51" fill="none" xmlns="http://www.w3.org/2000/svg">
<path d="M17.4992 13.2354C16.2255 13.2354 14.9804 13.613 13.9214 14.3207C12.8623 15.0283 12.0369 16.0341 11.5495 17.2108C11.0621 18.3876 10.9345 19.6824 11.183 20.9317C11.4315 22.1809 12.0448 23.3284 12.9455 24.229C13.8461 25.1297 14.9936 25.743 16.2428 25.9915C17.4921 26.24 18.7869 26.1125 19.9637 25.625C21.1404 25.1376 22.1462 24.3122 22.8539 23.2532C23.5615 22.1941 23.9392 20.949 23.9392 19.6753C23.9372 17.9679 23.2581 16.331 22.0508 15.1237C20.8435 13.9164 19.2066 13.2373 17.4992 13.2354ZM17.4992 22.8953C16.8624 22.8953 16.2398 22.7064 15.7103 22.3526C15.1808 21.9988 14.7681 21.4959 14.5244 20.9075C14.2806 20.3192 14.2169 19.6717 14.3411 19.0471C14.4654 18.4225 14.772 17.8488 15.2224 17.3984C15.6727 16.9481 16.2464 16.6414 16.871 16.5172C17.4957 16.393 18.1431 16.4567 18.7315 16.7004C19.3198 16.9441 19.8227 17.3569 20.1765 17.8864C20.5304 18.4159 20.7192 19.0385 20.7192 19.6753C20.7182 20.529 20.3787 21.3474 19.775 21.9511C19.1714 22.5547 18.3529 22.8943 17.4992 22.8953Z" fill="#6E56FE"/>
<path d="M29.8742 7.29081C26.8145 4.23187 22.7301 2.41474 18.4094 2.19012C14.0887 1.9655 9.83795 3.34932 6.47754 6.07449C3.11713 8.79966 0.885293 12.673 0.21277 16.947C-0.459754 21.2209 0.474716 25.5925 2.83582 29.218L15.002 47.8951C15.2727 48.3107 15.6429 48.6522 16.079 48.8886C16.5151 49.1249 17.0032 49.2487 17.4993 49.2487C17.9953 49.2487 18.4834 49.1249 18.9195 48.8886C19.3556 48.6522 19.7258 48.3107 19.9965 47.8951L32.1631 29.218C34.3539 25.8548 35.3221 21.8408 34.9054 17.8487C34.4887 13.8565 32.7124 10.129 29.8742 7.29081ZM29.4651 27.4604L17.4993 45.8293L5.53336 27.4604C1.87064 21.8376 2.65621 14.3129 7.40125 9.56764C8.72733 8.24152 10.3016 7.18958 12.0343 6.47189C13.7669 5.7542 15.6239 5.3848 17.4993 5.3848C19.3747 5.3848 21.2317 5.7542 22.9643 6.47189C24.697 7.18958 26.2713 8.24152 27.5974 9.56764C32.3424 14.3129 33.1279 21.8376 29.4651 27.4604Z" fill="#6E56FE"/>
</svg>
