<svg width="30" height="30" viewBox="0 0 30 30" fill="none" xmlns="http://www.w3.org/2000/svg">
<path d="M14.0175 0.00807311C13.9529 0.0139373 13.7478 0.034462 13.5631 0.0491228C9.30215 0.43323 5.31088 2.73201 2.78308 6.26522C1.37547 8.22973 0.47511 10.4582 0.134846 12.8185C0.0147173 13.6424 0 13.8858 0 15.0029C0 16.1201 0.0147173 16.3634 0.134846 17.1874C0.950218 22.82 4.95891 27.5524 10.3959 29.3058C11.3696 29.6195 12.3958 29.8336 13.5631 29.9626C14.0175 30.0125 15.9822 30.0125 16.4369 29.9626C18.4514 29.7398 20.1582 29.2413 21.8415 28.3822C22.0997 28.2502 22.1496 28.2151 22.1142 28.1857C22.0907 28.1682 20.9913 26.6933 19.6714 24.9106L17.2727 21.6706L14.2668 17.2226C12.6129 14.7771 11.2521 12.7774 11.2404 12.7774C11.2287 12.7745 11.217 14.7508 11.211 17.1639C11.2023 21.3891 11.1993 21.5591 11.1467 21.6588C11.0704 21.8025 11.0116 21.8612 10.8885 21.9257C10.7948 21.9726 10.7125 21.9814 10.2698 21.9814H9.76254L9.6274 21.8964C9.53941 21.8406 9.47514 21.7673 9.431 21.6823L9.36942 21.5503L9.37543 15.6715L9.38414 9.78961L9.47513 9.67527C9.52199 9.61368 9.6217 9.53453 9.69197 9.49642C9.8124 9.43778 9.85925 9.43189 10.3665 9.43189C10.9647 9.43189 11.0644 9.45538 11.22 9.62542C11.2638 9.67233 12.8913 12.1236 14.8386 15.0762C16.7859 18.0289 19.4485 22.0606 20.7564 24.0397L23.1319 27.6374L23.2521 27.5583C24.3167 26.8663 25.4426 25.8811 26.3343 24.8549C28.2314 22.6763 29.4543 20.0198 29.8649 17.1874C29.9853 16.3634 30 16.1201 30 15.0029C30 13.8858 29.9853 13.6424 29.8649 12.8185C29.0498 7.1859 25.0411 2.45346 19.6041 0.700054C18.6452 0.389248 17.6247 0.175204 16.4807 0.0461906C16.1993 0.0168695 14.2611 -0.0153839 14.0175 0.00807311ZM20.1582 9.08006C20.299 9.15041 20.4134 9.2853 20.4546 9.42604C20.478 9.50228 20.4837 11.1325 20.478 14.8065L20.469 20.0784L19.5395 18.6534L18.607 17.2284V13.3961C18.607 10.9185 18.6187 9.52573 18.6361 9.45829C18.6833 9.2941 18.7857 9.1651 18.9265 9.08886C19.047 9.02727 19.0908 9.02141 19.5512 9.02141C19.9852 9.02141 20.0615 9.02727 20.1582 9.08006Z" fill="white" fill-opacity="0.5"/>
</svg>
