<svg width="45" height="46" viewBox="0 0 45 46" fill="none" xmlns="http://www.w3.org/2000/svg">
<g clip-path="url(#clip0_551_1745)">
<path d="M43.125 6.02002H1.875C0.963318 6.02002 0.0889765 6.38218 -0.55568 7.02684C-1.20034 7.6715 -1.5625 8.54584 -1.5625 9.45752V36.9575C-1.5625 37.8692 -1.20034 38.7435 -0.55568 39.3882C0.0889765 40.0329 0.963318 40.395 1.875 40.395H43.125C44.0367 40.395 44.911 40.0329 45.5557 39.3882C46.2003 38.7435 46.5625 37.8692 46.5625 36.9575V9.45752C46.5625 8.54584 46.2003 7.6715 45.5557 7.02684C44.911 6.38218 44.0367 6.02002 43.125 6.02002ZM39.3438 9.45752L22.5 21.1106L5.65625 9.45752H39.3438ZM1.875 36.9575V11.0216L21.5203 24.6169C21.808 24.8165 22.1498 24.9234 22.5 24.9234C22.8502 24.9234 23.192 24.8165 23.4797 24.6169L43.125 11.0216V36.9575H1.875Z" fill="#6E56FE"/>
</g>
<defs>
<clipPath id="clip0_551_1745">
<rect y="0.70752" width="45" height="45" rx="8" fill="white"/>
</clipPath>
</defs>
</svg>
