<svg width="27" height="28" viewBox="0 0 27 28" fill="none" xmlns="http://www.w3.org/2000/svg">
<g clip-path="url(#clip0_539_132)">
<path d="M11.8235 4.15237C11.7712 4.33704 11.7753 4.53314 11.8353 4.71547C11.8953 4.89779 12.0084 5.05801 12.1602 5.17555C13.353 6.10301 14.2931 7.31585 14.8938 8.70223C16.9013 13.3102 14.7704 18.678 10.1407 20.695C9.53533 20.9579 8.92311 21.1519 8.30409 21.277C8.11476 21.3154 7.94086 21.4085 7.80392 21.5448C7.66697 21.681 7.57299 21.8544 7.53362 22.0436C7.49088 22.2412 7.51496 22.4473 7.60209 22.6298C7.68921 22.8122 7.83444 22.9605 8.01499 23.0514C9.39482 23.7638 10.9162 24.1594 12.4683 24.2092C14.0204 24.259 15.564 23.9619 16.9867 23.3395C22.2696 21.0379 24.6944 14.9175 22.4098 9.67361C20.6903 5.7269 16.7929 3.39716 12.7185 3.46519C12.5149 3.46703 12.3175 3.53507 12.156 3.65904C11.9946 3.78302 11.8778 3.95618 11.8235 4.15237ZM13.6479 4.76599C15.2842 4.89973 16.8536 5.47422 18.1896 6.42843C19.5255 7.38265 20.578 8.68093 21.2352 10.1854C23.2422 14.7921 21.1102 20.1605 16.4805 22.1775C15.3726 22.6622 14.1796 22.9224 12.9705 22.9432C11.7614 22.964 10.5602 22.7449 9.43633 22.2986C9.84387 22.1783 10.2474 22.0311 10.647 21.857C15.9299 19.5554 18.3535 13.4356 16.0689 8.19164C15.4863 6.85429 14.6543 5.70195 13.6479 4.76599Z" fill="white"/>
</g>
<defs>
<clipPath id="clip0_539_132">
<rect width="20" height="20" fill="white" transform="matrix(-0.916772 0.39941 0.39941 0.916772 18.5605 0.838196)"/>
</clipPath>
</defs>
</svg>
