<svg width="55" height="56" viewBox="0 0 55 56" fill="none" xmlns="http://www.w3.org/2000/svg">
<rect y="0.70752" width="55" height="55" rx="8" fill="#6E56FE"/>
<g clip-path="url(#clip0_549_1245)">
<path d="M27.5 43.52C23.4389 43.52 19.5441 41.9067 16.6724 39.0351C13.8008 36.1634 12.1875 32.2686 12.1875 28.2075C12.1875 24.1464 13.8008 20.2516 16.6724 17.3799C19.5441 14.5083 23.4389 12.895 27.5 12.895C31.5611 12.895 35.4559 14.5083 38.3276 17.3799C41.1992 20.2516 42.8125 24.1464 42.8125 28.2075C42.8125 32.2686 41.1992 36.1634 38.3276 39.0351C35.4559 41.9067 31.5611 43.52 27.5 43.52ZM27.5 45.7075C32.1413 45.7075 36.5925 43.8638 39.8744 40.5819C43.1563 37.3 45 32.8488 45 28.2075C45 23.5662 43.1563 19.115 39.8744 15.8332C36.5925 12.5513 32.1413 10.7075 27.5 10.7075C22.8587 10.7075 18.4075 12.5513 15.1256 15.8332C11.8437 19.115 10 23.5662 10 28.2075C10 32.8488 11.8437 37.3 15.1256 40.5819C18.4075 43.8638 22.8587 45.7075 27.5 45.7075Z" fill="white"/>
<path d="M21.4953 23.3644C21.4923 23.435 21.5038 23.5055 21.5291 23.5716C21.5543 23.6376 21.5928 23.6978 21.6422 23.7484C21.6916 23.799 21.7508 23.839 21.8162 23.8659C21.8816 23.8927 21.9518 23.906 22.0225 23.9047H23.8272C24.1291 23.9047 24.3697 23.6575 24.4091 23.3578C24.6059 21.9228 25.5903 20.8772 27.3447 20.8772C28.8453 20.8772 30.2191 21.6275 30.2191 23.4322C30.2191 24.8213 29.4009 25.46 28.1081 26.4313C26.6359 27.501 25.47 28.75 25.5531 30.7778L25.5597 31.2525C25.562 31.396 25.6206 31.5329 25.7229 31.6336C25.8252 31.7342 25.963 31.7907 26.1066 31.7906H27.8806C28.0257 31.7906 28.1648 31.733 28.2673 31.6305C28.3699 31.5279 28.4275 31.3888 28.4275 31.2438V31.0141C28.4275 29.4435 29.0247 28.9863 30.6369 27.7635C31.9691 26.7506 33.3581 25.6263 33.3581 23.266C33.3581 19.9606 30.5669 18.3638 27.5109 18.3638C24.7394 18.3638 21.7031 19.6544 21.4953 23.3644ZM24.9012 35.971C24.9012 37.1369 25.8309 37.9988 27.1106 37.9988C28.4428 37.9988 29.3594 37.1369 29.3594 35.971C29.3594 34.7635 28.4406 33.9147 27.1084 33.9147C25.8309 33.9147 24.9012 34.7635 24.9012 35.971Z" fill="white"/>
</g>
<defs>
<clipPath id="clip0_549_1245">
<rect width="35" height="35" fill="white" transform="translate(10 10.7075)"/>
</clipPath>
</defs>
</svg>
