<svg width="30" height="30" viewBox="0 0 30 30" fill="none" xmlns="http://www.w3.org/2000/svg">
<path d="M30 15.0034C30 12.7718 27.5112 10.6569 23.6955 9.34538C24.576 4.97825 24.1848 1.50378 22.4604 0.391393C22.0629 0.130464 21.5979 0.00686549 21.0906 0.00686549V1.53811C21.3717 1.53811 21.5979 1.59991 21.7875 1.71664C22.6191 2.25224 22.98 4.2916 22.6986 6.91463C22.6314 7.56008 22.5213 8.23986 22.3869 8.93338C21.1884 8.60382 19.8798 8.34975 18.504 8.18495C17.6784 6.91463 16.8222 5.76104 15.96 4.75167C17.9535 2.6711 19.8246 1.53124 21.0966 1.53124V0C19.4151 0 17.2137 1.34585 14.9877 3.68048C12.762 1.35958 10.5606 0.0274653 8.8788 0.0274653V1.55871C10.1448 1.55871 12.0219 2.69169 14.0154 4.75854C13.1595 5.76791 12.3033 6.91463 11.49 8.18495C10.1079 8.34975 8.7993 8.60382 7.6008 8.94025C7.4604 8.2536 7.3563 7.58754 7.2828 6.94896C6.9954 4.32593 7.3503 2.28656 8.1756 1.7441C8.3592 1.62051 8.5977 1.56558 8.8788 1.56558V0.0343342C8.3652 0.0343342 7.9005 0.15793 7.497 0.418862C5.7786 1.53124 5.3934 4.99887 6.2802 9.35225C2.4765 10.6706 0 12.7787 0 15.0034C0 17.2351 2.4888 19.35 6.3045 20.6615C5.424 25.0286 5.8152 28.5031 7.5396 29.6155C7.9371 29.8764 8.4021 30 8.9157 30C10.5972 30 12.7986 28.6542 15.0246 26.3195C17.2503 28.6404 19.4517 29.9725 21.1332 29.9725C21.6471 29.9725 22.1118 29.8489 22.5153 29.588C24.2337 28.4756 24.6189 25.008 23.7321 20.6546C27.5235 19.3431 30 17.2282 30 15.0034ZM22.0383 10.4234C21.8121 11.3092 21.5307 12.2225 21.2127 13.1357C20.9622 12.5864 20.6991 12.0371 20.4117 11.4878C20.1306 10.9384 19.8309 10.4029 19.5312 9.88097C20.3994 10.0252 21.2373 10.2037 22.0383 10.4234ZM19.2378 17.7363C18.7608 18.6633 18.2715 19.5422 17.7639 20.3594C16.8528 20.4486 15.9294 20.4967 15 20.4967C14.0766 20.4967 13.1532 20.4486 12.2484 20.3662C11.7408 19.5491 11.2455 18.677 10.7685 17.7569C10.3038 16.8574 9.8817 15.9442 9.4965 15.024C9.8757 14.1039 10.3038 13.1838 10.7622 12.2843C11.2392 11.3573 11.7285 10.4784 12.2361 9.66126C13.1472 9.57199 14.0706 9.52392 15 9.52392C15.9234 9.52392 16.8468 9.57199 17.7516 9.65439C18.2592 10.4715 18.7545 11.3436 19.2315 12.2637C19.6962 13.1632 20.1183 14.0765 20.5035 14.9966C20.1183 15.9167 19.6962 16.8368 19.2378 17.7363ZM21.2127 16.8437C21.543 17.7638 21.8244 18.6839 22.0566 19.5766C21.2556 19.7963 20.4117 19.9817 19.5372 20.1259C19.8369 19.5972 20.1366 19.0547 20.418 18.4985C20.6991 17.9492 20.9622 17.393 21.2127 16.8437ZM15.0123 24.1703C14.4435 23.5111 13.8747 22.7764 13.3122 21.973C13.8627 22.0005 14.4252 22.021 14.994 22.021C15.5688 22.021 16.1373 22.0073 16.6938 21.973C16.1436 22.7764 15.5748 23.5111 15.0123 24.1703ZM10.4628 20.1259C9.5943 19.9817 8.7567 19.8032 7.9557 19.5834C8.1819 18.6977 8.463 17.7844 8.781 16.8711C9.0318 17.4205 9.2946 17.9698 9.582 18.5191C9.8694 19.0685 10.1631 19.604 10.4628 20.1259ZM14.9817 5.83657C15.5502 6.49576 16.119 7.23048 16.6815 8.03386C16.1313 8.0064 15.5688 7.98582 15 7.98582C14.4252 7.98582 13.8564 7.99953 13.2999 8.03386C13.8504 7.23048 14.4192 6.49576 14.9817 5.83657ZM10.4565 9.88097C10.1571 10.4097 9.8574 10.9522 9.576 11.5084C9.2946 12.0577 9.0318 12.607 8.781 13.1563C8.451 12.2362 8.1696 11.3161 7.9371 10.4234C8.7384 10.2106 9.582 10.0252 10.4565 9.88097ZM4.9224 18.4779C2.7579 17.4411 1.3575 16.0815 1.3575 15.0034C1.3575 13.9254 2.7579 12.5589 4.9224 11.529C5.4483 11.2749 6.0231 11.0483 6.6165 10.8354C6.9648 12.1813 7.4235 13.5821 7.9923 15.0172C7.4298 16.4454 6.9771 17.8393 6.6348 19.1783C6.0294 18.9654 5.4546 18.732 4.9224 18.4779ZM8.2125 28.2902C7.3809 27.7546 7.02 25.7153 7.3014 23.0922C7.3686 22.4468 7.4787 21.767 7.6131 21.0735C8.8116 21.4031 10.1202 21.6571 11.496 21.8219C12.3216 23.0922 13.1778 24.2458 14.04 25.2552C12.0465 27.3358 10.1754 28.4756 8.9034 28.4756C8.6283 28.4688 8.3958 28.407 8.2125 28.2902ZM22.7172 23.0579C23.0046 25.6809 22.6497 27.7203 21.8244 28.2628C21.6408 28.3864 21.4023 28.4413 21.1212 28.4413C19.8552 28.4413 17.9781 27.3083 15.9846 25.2415C16.8405 24.2321 17.6967 23.0854 18.51 21.8151C19.8921 21.6503 21.2007 21.3962 22.3992 21.0597C22.5396 21.7533 22.6497 22.4193 22.7172 23.0579ZM25.0713 18.4779C24.5454 18.732 23.9706 18.9586 23.3775 19.1714C23.0289 17.8256 22.5702 16.4248 22.0017 14.9897C22.5642 13.5614 23.0166 12.1675 23.3592 10.8286C23.9646 11.0414 24.5394 11.2749 25.0776 11.529C27.2421 12.5658 28.6425 13.9254 28.6425 15.0034C28.6365 16.0815 27.2361 17.4479 25.0713 18.4779Z" fill="white" fill-opacity="0.5"/>
<path d="M15 18C12.7907 18 11 16.6569 11 15C11 13.3431 12.7907 12 15 12C17.2089 12 19 13.3431 19 15C19 16.6569 17.2089 18 15 18Z" fill="white" fill-opacity="0.5"/>
</svg>
