<svg width="101" height="17" viewBox="0 0 101 17" fill="none" xmlns="http://www.w3.org/2000/svg">
<g clip-path="url(#clip0_593_1299)">
<path d="M9.40317 1.06787L11.4104 6.77221H17.906L12.651 10.2977L14.6582 16.002L9.40317 12.4765L4.14812 16.002L6.15537 10.2977L0.900314 6.77221H7.39592L9.40317 1.06787Z" fill="#FBB040"/>
</g>
<g clip-path="url(#clip1_593_1299)">
<path d="M30.1532 1.06787L32.1604 6.77221H38.656L33.401 10.2977L35.4082 16.002L30.1532 12.4765L24.8981 16.002L26.9054 10.2977L21.6503 6.77221H28.1459L30.1532 1.06787Z" fill="#FBB040"/>
</g>
<g clip-path="url(#clip2_593_1299)">
<path d="M50.9032 1.06787L52.9104 6.77221H59.406L54.151 10.2977L56.1582 16.002L50.9032 12.4765L45.6481 16.002L47.6554 10.2977L42.4003 6.77221H48.8959L50.9032 1.06787Z" fill="#FBB040"/>
</g>
<g clip-path="url(#clip3_593_1299)">
<path d="M71.6532 1.06787L73.6604 6.77221H80.156L74.901 10.2977L76.9082 16.002L71.6532 12.4765L66.3981 16.002L68.4054 10.2977L63.1503 6.77221H69.6459L71.6532 1.06787Z" fill="#FBB040"/>
</g>
<g clip-path="url(#clip4_593_1299)">
<path d="M92.4032 1.06787L94.4104 6.77221H100.906L95.651 10.2977L97.6582 16.002L92.4032 12.4765L87.1481 16.002L89.1554 10.2977L83.9003 6.77221H90.3959L92.4032 1.06787Z" fill="#FBB040"/>
</g>
<defs>
<clipPath id="clip0_593_1299">
<rect width="18" height="16" fill="white" transform="translate(0 0.70752)"/>
</clipPath>
<clipPath id="clip1_593_1299">
<rect width="18" height="16" fill="white" transform="translate(20.75 0.70752)"/>
</clipPath>
<clipPath id="clip2_593_1299">
<rect width="18" height="16" fill="white" transform="translate(41.5 0.70752)"/>
</clipPath>
<clipPath id="clip3_593_1299">
<rect width="18" height="16" fill="white" transform="translate(62.25 0.70752)"/>
</clipPath>
<clipPath id="clip4_593_1299">
<rect width="18" height="16" fill="white" transform="translate(83 0.70752)"/>
</clipPath>
</defs>
</svg>
