<svg width="145" height="40" viewBox="0 0 145 40" fill="none" xmlns="http://www.w3.org/2000/svg">
<g clip-path="url(#clip0_554_990)">
<mask id="mask0_554_990" style="mask-type:luminance" maskUnits="userSpaceOnUse" x="0" y="0" width="145" height="40">
<path d="M144.55 0H0.450317V40H144.55V0Z" fill="white"/>
</mask>
<g mask="url(#mask0_554_990)">
<mask id="mask1_554_990" style="mask-type:luminance" maskUnits="userSpaceOnUse" x="0" y="0" width="37" height="40">
<path d="M36.4752 0H0.450317V40H36.4752V0Z" fill="white"/>
</mask>
<g mask="url(#mask1_554_990)">
<path opacity="0.72" d="M36.4175 18.3522C36.3999 18.1526 36.3166 17.9673 36.1838 17.8316C36.0509 17.6958 35.8776 17.6191 35.697 17.6162H17.7423C17.2547 17.6294 16.7788 17.784 16.3617 18.0647C15.9446 18.3454 15.6008 18.7424 15.3647 19.2162C15.146 19.6399 15.031 20.1198 15.031 20.6082C15.031 21.0965 15.146 21.5764 15.3647 22.0002C15.4271 22.1334 15.5197 22.2463 15.6334 22.3277C15.7472 22.409 15.8779 22.4561 16.013 22.4642H35.7403C35.9209 22.4612 36.0942 22.3845 36.227 22.2488C36.36 22.113 36.4431 21.9277 36.4608 21.7282C36.4608 21.1042 36.4608 20.5762 36.4608 20.1282C36.4608 19.6802 36.4607 18.9602 36.4175 18.3522Z" fill="#3758F9"/>
<path d="M36.4029 18.3522C36.3887 18.154 36.3085 17.9689 36.178 17.8328C36.0475 17.6967 35.8759 17.6195 35.6968 17.6162H32.8149C32.7138 17.6174 32.614 17.6423 32.5222 17.6892C32.4303 17.736 32.3484 17.8038 32.2817 17.8882C32.2146 17.9693 32.1643 18.0657 32.1344 18.1708C32.1045 18.2759 32.0958 18.3869 32.1089 18.4962C32.1089 19.0082 32.1089 19.5202 32.1089 20.0962C32.1052 22.6493 31.5225 25.1603 30.4143 27.3973C29.3062 29.6344 27.7083 31.5255 25.7684 32.8962C25.5667 33.0402 25.3794 33.2162 25.1633 33.3442C24.1059 34.0128 22.9714 34.5188 21.7913 34.8482L23.6791 38.5762C23.7431 38.6994 23.8357 38.8015 23.9472 38.8718C24.0586 38.9421 24.1848 38.9781 24.313 38.9762C24.3892 38.9915 24.4674 38.9915 24.5436 38.9762L25.0047 38.7682L25.4226 38.5762C26.06 38.2822 26.6808 37.9456 27.2815 37.5682C30.091 35.8109 32.4254 33.2503 34.0421 30.1524C35.6589 27.0546 36.499 23.5325 36.4751 19.9522C36.4751 19.3602 36.4462 18.8962 36.4029 18.3522Z" fill="#3758F9"/>
<path d="M26.2032 33.5387C26.1064 33.3562 25.9525 33.2195 25.7709 33.1547H25.5691C25.444 33.1558 25.3208 33.1886 25.2089 33.2507C23.1541 34.5489 20.8292 35.2274 18.4651 35.2187C14.8368 35.2102 11.3593 33.6061 8.79366 30.7574C6.22804 27.9086 4.78331 24.0474 4.7757 20.0187C4.78331 15.99 6.22804 12.1287 8.79366 9.27999C11.3593 6.43126 14.8368 4.82713 18.4651 4.81867C20.8282 4.81951 23.1509 5.49735 25.2089 6.78666C25.3165 6.86248 25.4418 6.90144 25.5691 6.89866H25.7276C25.8264 6.87445 25.9197 6.82785 26.0015 6.76177C26.0834 6.6957 26.1521 6.61157 26.2032 6.51467L27.6442 3.73067C27.7395 3.54551 27.7657 3.3263 27.7173 3.11997C27.6688 2.91363 27.5494 2.73657 27.3848 2.62667C24.6725 0.924775 21.6094 0.0317974 18.494 0.0346749C13.7191 0.0431374 9.14206 2.15299 5.76568 5.90189C2.38935 9.65078 0.489188 14.7329 0.481567 20.0347C0.489188 25.3364 2.38935 30.4186 5.76568 34.1675C9.14206 37.9164 13.7191 40.0262 18.494 40.0347C21.6094 40.0375 24.6725 39.1446 27.3848 37.4427C27.4673 37.3913 27.5396 37.3221 27.5975 37.2391C27.6554 37.1561 27.6976 37.0611 27.7219 36.9596C27.746 36.8581 27.7517 36.7523 27.7384 36.6484C27.725 36.5445 27.6931 36.4446 27.6442 36.3547L26.2032 33.5387Z" fill="#3758F9"/>
<path opacity="0.56" d="M20.5231 22.3998H15.9697C15.8405 22.3896 15.7155 22.345 15.6051 22.2698C15.4947 22.1946 15.4023 22.091 15.3356 21.9678L23.7078 38.4318C23.772 38.5551 23.8645 38.6571 23.976 38.7275C24.0874 38.7978 24.2136 38.8338 24.3418 38.8318C24.4229 38.847 24.5058 38.847 24.5868 38.8318C25.539 38.4512 26.4599 37.9801 27.3392 37.4238C27.4216 37.3724 27.4938 37.3032 27.5517 37.2202C27.6096 37.1373 27.6518 37.0422 27.6761 36.9407C27.7002 36.8393 27.7059 36.7334 27.6925 36.6295C27.6792 36.5256 27.6472 36.4257 27.5984 36.3358L20.5231 22.3998Z" fill="#3758F9"/>
</g>
<path d="M56.7593 13.6567V30.6077H54.0748V13.6567H49.9845V10.855H60.8381V13.6567H56.7593Z" fill="#111928"/>
<path d="M70.0208 18.1472H72.6248V30.6078H70.0208V29.3029C68.9531 30.4116 67.8048 30.966 66.5759 30.966C65.0243 30.966 63.7415 30.3434 62.7276 29.0982C61.7213 27.8274 61.2181 26.241 61.2181 24.3391C61.2181 22.4713 61.7213 20.9148 62.7276 19.6696C63.7338 18.4244 64.9935 17.8018 66.5067 17.8018C67.8125 17.8018 68.9838 18.3988 70.0208 19.5929V18.1472ZM63.8682 24.3391C63.8682 25.5331 64.1562 26.5054 64.7324 27.256C65.3238 28.015 66.0689 28.3946 66.9675 28.3946C67.9277 28.3946 68.7035 28.0278 69.295 27.2943C69.8864 26.5353 70.1821 25.5715 70.1821 24.4031C70.1821 23.2346 69.8864 22.2709 69.295 21.5118C68.7035 20.7698 67.9354 20.3988 66.9906 20.3988C66.0996 20.3988 65.3545 20.7741 64.7554 21.5246C64.1639 22.2837 63.8682 23.2218 63.8682 24.3391Z" fill="#111928"/>
<path d="M78.4894 18.147V30.6076H75.897V18.147H78.4894ZM75.5052 12.9658C75.5052 12.4626 75.6704 12.0276 76.0007 11.6609C76.3309 11.2941 76.7266 11.1108 77.1874 11.1108C77.6559 11.1108 78.0554 11.2941 78.3857 11.6609C78.716 12.0191 78.8811 12.4583 78.8811 12.9786C78.8811 13.4988 78.716 13.9423 78.3857 14.3091C78.0631 14.6758 77.6675 14.8592 77.199 14.8592C76.7304 14.8592 76.3309 14.6758 76.0007 14.3091C75.6704 13.9423 75.5052 13.4946 75.5052 12.9658Z" fill="#111928"/>
<path d="M84.3655 9V30.6077H81.7732V9H84.3655Z" fill="#111928"/>
<path d="M97.2932 20.322H104.644V20.9744C104.644 22.4584 104.486 23.7719 104.171 24.9147C103.864 25.9723 103.345 26.9616 102.616 27.8827C100.965 29.9467 98.8638 30.9787 96.3133 30.9787C93.8249 30.9787 91.6931 29.9808 89.9191 27.9851C88.1446 25.9808 87.2574 23.5757 87.2574 20.7697C87.2574 17.9041 88.16 15.4733 89.9651 13.4776C91.7705 11.4733 93.9672 10.4712 96.5555 10.4712C97.9461 10.4712 99.2439 10.7868 100.45 11.4179C101.602 12.049 102.735 13.0725 103.849 14.4883L101.936 16.5224C100.477 14.3646 98.699 13.2857 96.6015 13.2857C94.7201 13.2857 93.1413 14.0064 91.866 15.4478C90.5907 16.8635 89.9535 18.6375 89.9535 20.7697C89.9535 22.9701 90.6637 24.7825 92.0849 26.2068C93.4142 27.5288 94.8543 28.1898 96.406 28.1898C97.7273 28.1898 98.9134 27.6951 99.9662 26.7058C101.018 25.7079 101.606 24.5139 101.729 23.1237H97.2932V20.322Z" fill="#111928"/>
<path d="M107.536 18.1472H110.128V19.2602C110.604 18.7059 111.027 18.3263 111.396 18.1216C111.773 17.9084 112.217 17.8018 112.733 17.8018C113.416 17.8018 114.13 18.0491 114.875 18.5438L113.688 21.1792C113.197 20.7869 112.717 20.5907 112.248 20.5907C110.835 20.5907 110.128 21.7762 110.128 24.1472V30.6078H107.536V18.1472Z" fill="#111928"/>
<path d="M119.322 18.147V30.6076H116.73V18.147H119.322ZM116.339 12.9658C116.339 12.4626 116.503 12.0276 116.834 11.6609C117.164 11.2941 117.56 11.1108 118.021 11.1108C118.489 11.1108 118.888 11.2941 119.219 11.6609C119.549 12.0191 119.714 12.4583 119.714 12.9786C119.714 13.4988 119.549 13.9423 119.219 14.3091C118.896 14.6758 118.501 14.8592 118.033 14.8592C117.563 14.8592 117.164 14.6758 116.834 14.3091C116.503 13.9423 116.339 13.4946 116.339 12.9658Z" fill="#111928"/>
<path d="M130.879 9H133.483V30.6077H130.879V29.3028C129.858 30.4115 128.702 30.9659 127.411 30.9659C125.874 30.9659 124.6 30.3433 123.586 29.0981C122.58 27.8273 122.077 26.2409 122.077 24.339C122.077 22.4797 122.58 20.9275 123.586 19.6823C124.585 18.4286 125.84 17.8017 127.353 17.8017C128.667 17.8017 129.843 18.3987 130.879 19.5928V9ZM124.726 24.339C124.726 25.533 125.014 26.5053 125.591 27.2559C126.182 28.0149 126.927 28.3945 127.826 28.3945C128.786 28.3945 129.562 28.0277 130.153 27.2942C130.745 26.5352 131.04 25.5714 131.04 24.403C131.04 23.2345 130.745 22.2708 130.153 21.5117C129.562 20.7697 128.793 20.3987 127.849 20.3987C126.958 20.3987 126.213 20.774 125.613 21.5245C125.022 22.2836 124.726 23.2217 124.726 24.339Z" fill="#111928"/>
<path d="M143.276 20.2709L141.134 21.5374C140.796 20.7698 140.377 20.386 139.877 20.386C139.64 20.386 139.436 20.4756 139.267 20.6547C139.098 20.8253 139.014 21.047 139.014 21.3199C139.014 21.7975 139.513 22.2709 140.511 22.74C141.887 23.3967 142.812 24.0022 143.288 24.5566C143.764 25.111 144.002 25.8572 144.002 26.7954C144.002 27.998 143.603 29.0044 142.804 29.8146C142.028 30.5822 141.091 30.966 139.993 30.966C138.111 30.966 136.778 29.9468 135.995 27.9084L138.207 26.7698C138.515 27.3668 138.749 27.7464 138.91 27.9084C139.224 28.2325 139.601 28.3946 140.039 28.3946C140.915 28.3946 141.353 27.9511 141.353 27.0641C141.353 26.5523 141.015 26.0747 140.338 25.6312C140.077 25.4862 139.816 25.3455 139.555 25.2091C139.294 25.0726 139.029 24.9319 138.76 24.7869C138.008 24.3775 137.477 23.9681 137.17 23.5587C136.778 23.0385 136.583 22.369 136.583 21.5502C136.583 20.4671 136.917 19.5715 137.585 18.8636C138.269 18.1558 139.098 17.8018 140.074 17.8018C141.51 17.8018 142.577 18.6248 143.276 20.2709Z" fill="#111928"/>
</g>
</g>
<defs>
<clipPath id="clip0_554_990">
<rect width="145" height="40" fill="white"/>
</clipPath>
</defs>
</svg>
