<svg width="30" height="30" viewBox="0 0 30 30" fill="none" xmlns="http://www.w3.org/2000/svg">
<mask id="mask0_539_181" style="mask-type:luminance" maskUnits="userSpaceOnUse" x="0" y="0" width="30" height="30">
<path d="M0 0H30V30H0V0Z" fill="white"/>
</mask>
<g mask="url(#mask0_539_181)">
<path d="M15 0.0389481C11.0001 0.0389481 8.4999 3.36348 7.5 10.0124C9 6.68782 10.7499 5.44114 12.75 6.27232C13.8912 6.74646 14.7066 8.12269 15.6096 9.64578C17.0802 12.1272 18.7821 14.9991 22.5 14.9991C26.4999 14.9991 29.0001 11.6745 30 5.02565C28.5 8.35018 26.7501 9.59686 24.75 8.76568C23.6088 8.29154 22.7934 6.91536 21.8904 5.39227C20.4198 2.91079 18.7179 0.0389481 15 0.0389481ZM7.5 14.9991C3.5001 14.9991 0.9999 18.3236 0 24.9725C1.5 21.6479 3.2499 20.4012 5.25 21.2324C6.3912 21.7066 7.2066 23.0828 8.1096 24.6059C9.5802 27.0873 11.2821 29.9592 15 29.9592C18.9999 29.9592 21.5001 26.6346 22.5 19.9858C21 23.3103 19.2501 24.557 17.25 23.7258C16.1088 23.2516 15.2934 21.8755 14.3904 20.3524C12.9198 17.8709 11.2179 14.9991 7.5 14.9991Z" fill="white" fill-opacity="0.5"/>
</g>
</svg>
