<svg width="180" height="30" viewBox="0 0 180 30" fill="none" xmlns="http://www.w3.org/2000/svg">
<mask id="mask0_539_172" style="mask-type:luminance" maskUnits="userSpaceOnUse" x="0" y="0" width="30" height="30">
<path d="M0 0H30V30H0V0Z" fill="white"/>
</mask>
<g mask="url(#mask0_539_172)">
<path fill-rule="evenodd" clip-rule="evenodd" d="M6.23109 0.00293732C4.51935 0.00293732 3.25272 1.88328 3.30942 3.92244C3.36387 5.88151 3.29313 8.41883 2.7842 10.488C2.27344 12.563 1.41023 13.8779 0 14.0466V15.9521C1.41023 16.1212 2.27344 17.4355 2.78414 19.5107C3.29313 21.5799 3.36381 24.1172 3.30936 26.0763C3.25266 28.1151 4.51929 29.9958 6.23133 29.9958H23.7712C25.483 29.9958 26.7494 28.1154 26.6926 26.0763C26.6382 24.1172 26.7089 21.5799 27.2179 19.5107C27.7286 17.4355 28.5897 16.1207 30 15.9521V14.0466C28.5898 13.8775 27.7287 12.5633 27.2179 10.488C26.7089 8.41909 26.6382 5.88151 26.6926 3.92244C26.7494 1.88355 25.483 0.00293732 23.7712 0.00293732H6.23109ZM20.339 18.4655C20.339 21.2733 18.6702 22.9762 15.9008 22.9762H11.1864C11.0516 22.9762 10.9223 22.909 10.8269 22.7893C10.7315 22.6696 10.678 22.5073 10.678 22.3381V7.66073C10.678 7.49149 10.7315 7.32914 10.8269 7.20949C10.9223 7.0898 11.0516 7.02259 11.1864 7.02259H15.8739C18.1832 7.02259 19.6987 8.59243 19.6987 11.0026C19.6987 12.6944 18.6792 14.2088 17.3803 14.4742V14.5624C19.1484 14.8058 20.339 16.3427 20.339 18.4655ZM15.3867 9.04548H12.6987V13.8107H14.9627C16.7129 13.8107 17.6779 12.9261 17.6779 11.3452C17.6777 9.86359 16.8481 9.04548 15.3867 9.04548ZM12.6987 15.7013V20.9526H15.4856C17.3079 20.9526 18.2731 20.035 18.2731 18.3104C18.2731 16.5858 17.2808 15.7011 15.3684 15.7011L12.6987 15.7013Z" fill="white" fill-opacity="0.5"/>
</g>
<mask id="mask1_539_172" style="mask-type:luminance" maskUnits="userSpaceOnUse" x="50" y="0" width="30" height="30">
<path d="M50 0H80V30H50V0Z" fill="white"/>
</mask>
<g mask="url(#mask1_539_172)">
<path d="M65 0.0389481C61.0001 0.0389481 58.4999 3.36348 57.5 10.0124C59 6.68782 60.7499 5.44114 62.75 6.27232C63.8912 6.74646 64.7066 8.12269 65.6096 9.64578C67.0802 12.1272 68.7821 14.9991 72.5 14.9991C76.4999 14.9991 79.0001 11.6745 80 5.02565C78.5 8.35018 76.7501 9.59686 74.75 8.76568C73.6088 8.29154 72.7934 6.91536 71.8904 5.39227C70.4198 2.91079 68.7179 0.0389481 65 0.0389481ZM57.5 14.9991C53.5001 14.9991 50.9999 18.3236 50 24.9725C51.5 21.6479 53.2499 20.4012 55.25 21.2324C56.3912 21.7066 57.2066 23.0828 58.1096 24.6059C59.5802 27.0873 61.2821 29.9592 65 29.9592C68.9999 29.9592 71.5001 26.6346 72.5 19.9858C71 23.3103 69.2501 24.557 67.25 23.7258C66.1088 23.2516 65.2934 21.8755 64.3904 20.3524C62.9198 17.8709 61.2179 14.9991 57.5 14.9991Z" fill="white" fill-opacity="0.5"/>
</g>
<path d="M114.017 0.00807311C113.953 0.0139373 113.748 0.034462 113.563 0.0491228C109.302 0.43323 105.311 2.73201 102.783 6.26522C101.375 8.22973 100.475 10.4582 100.135 12.8185C100.015 13.6424 100 13.8858 100 15.0029C100 16.1201 100.015 16.3634 100.135 17.1874C100.95 22.82 104.959 27.5524 110.396 29.3058C111.37 29.6195 112.396 29.8336 113.563 29.9626C114.017 30.0125 115.982 30.0125 116.437 29.9626C118.451 29.7398 120.158 29.2413 121.841 28.3822C122.1 28.2502 122.15 28.2151 122.114 28.1857C122.091 28.1682 120.991 26.6933 119.671 24.9106L117.273 21.6706L114.267 17.2226C112.613 14.7771 111.252 12.7774 111.24 12.7774C111.229 12.7745 111.217 14.7508 111.211 17.1639C111.202 21.3891 111.199 21.5591 111.147 21.6588C111.07 21.8025 111.012 21.8612 110.888 21.9257C110.795 21.9726 110.712 21.9814 110.27 21.9814H109.763L109.627 21.8964C109.539 21.8406 109.475 21.7673 109.431 21.6823L109.369 21.5503L109.375 15.6715L109.384 9.78961L109.475 9.67527C109.522 9.61368 109.622 9.53453 109.692 9.49642C109.812 9.43778 109.859 9.43189 110.366 9.43189C110.965 9.43189 111.064 9.45538 111.22 9.62542C111.264 9.67233 112.891 12.1236 114.839 15.0762C116.786 18.0289 119.449 22.0606 120.756 24.0397L123.132 27.6374L123.252 27.5583C124.317 26.8663 125.443 25.8811 126.334 24.8549C128.231 22.6763 129.454 20.0198 129.865 17.1874C129.985 16.3634 130 16.1201 130 15.0029C130 13.8858 129.985 13.6424 129.865 12.8185C129.05 7.1859 125.041 2.45346 119.604 0.700054C118.645 0.389248 117.625 0.175204 116.481 0.0461906C116.199 0.0168695 114.261 -0.0153839 114.017 0.00807311ZM120.158 9.08006C120.299 9.15041 120.413 9.2853 120.455 9.42604C120.478 9.50228 120.484 11.1325 120.478 14.8065L120.469 20.0784L119.54 18.6534L118.607 17.2284V13.3961C118.607 10.9185 118.619 9.52573 118.636 9.45829C118.683 9.2941 118.786 9.1651 118.927 9.08886C119.047 9.02727 119.091 9.02141 119.551 9.02141C119.985 9.02141 120.061 9.02727 120.158 9.08006Z" fill="white" fill-opacity="0.5"/>
<path d="M180 15.0034C180 12.7718 177.511 10.6569 173.695 9.34538C174.576 4.97825 174.185 1.50378 172.46 0.391393C172.063 0.130464 171.598 0.00686549 171.091 0.00686549V1.53811C171.372 1.53811 171.598 1.59991 171.787 1.71664C172.619 2.25224 172.98 4.2916 172.699 6.91463C172.631 7.56008 172.521 8.23986 172.387 8.93338C171.188 8.60382 169.88 8.34975 168.504 8.18495C167.678 6.91463 166.822 5.76104 165.96 4.75167C167.954 2.6711 169.825 1.53124 171.097 1.53124V0C169.415 0 167.214 1.34585 164.988 3.68048C162.762 1.35958 160.561 0.0274653 158.879 0.0274653V1.55871C160.145 1.55871 162.022 2.69169 164.015 4.75854C163.159 5.76791 162.303 6.91463 161.49 8.18495C160.108 8.34975 158.799 8.60382 157.601 8.94025C157.46 8.2536 157.356 7.58754 157.283 6.94896C156.995 4.32593 157.35 2.28656 158.176 1.7441C158.359 1.62051 158.598 1.56558 158.879 1.56558V0.0343342C158.365 0.0343342 157.9 0.15793 157.497 0.418862C155.779 1.53124 155.393 4.99887 156.28 9.35225C152.476 10.6706 150 12.7787 150 15.0034C150 17.2351 152.489 19.35 156.305 20.6615C155.424 25.0286 155.815 28.5031 157.54 29.6155C157.937 29.8764 158.402 30 158.916 30C160.597 30 162.799 28.6542 165.025 26.3195C167.25 28.6404 169.452 29.9725 171.133 29.9725C171.647 29.9725 172.112 29.8489 172.515 29.588C174.234 28.4756 174.619 25.008 173.732 20.6546C177.523 19.3431 180 17.2282 180 15.0034ZM172.038 10.4234C171.812 11.3092 171.531 12.2225 171.213 13.1357C170.962 12.5864 170.699 12.0371 170.412 11.4878C170.131 10.9384 169.831 10.4029 169.531 9.88097C170.399 10.0252 171.237 10.2037 172.038 10.4234ZM169.238 17.7363C168.761 18.6633 168.272 19.5422 167.764 20.3594C166.853 20.4486 165.929 20.4967 165 20.4967C164.077 20.4967 163.153 20.4486 162.248 20.3662C161.741 19.5491 161.245 18.677 160.768 17.7569C160.304 16.8574 159.882 15.9442 159.496 15.024C159.876 14.1039 160.304 13.1838 160.762 12.2843C161.239 11.3573 161.728 10.4784 162.236 9.66126C163.147 9.57199 164.071 9.52392 165 9.52392C165.923 9.52392 166.847 9.57199 167.752 9.65439C168.259 10.4715 168.755 11.3436 169.232 12.2637C169.696 13.1632 170.118 14.0765 170.503 14.9966C170.118 15.9167 169.696 16.8368 169.238 17.7363ZM171.213 16.8437C171.543 17.7638 171.824 18.6839 172.057 19.5766C171.256 19.7963 170.412 19.9817 169.537 20.1259C169.837 19.5972 170.137 19.0547 170.418 18.4985C170.699 17.9492 170.962 17.393 171.213 16.8437ZM165.012 24.1703C164.443 23.5111 163.875 22.7764 163.312 21.973C163.863 22.0005 164.425 22.021 164.994 22.021C165.569 22.021 166.137 22.0073 166.694 21.973C166.144 22.7764 165.575 23.5111 165.012 24.1703ZM160.463 20.1259C159.594 19.9817 158.757 19.8032 157.956 19.5834C158.182 18.6977 158.463 17.7844 158.781 16.8711C159.032 17.4205 159.295 17.9698 159.582 18.5191C159.869 19.0685 160.163 19.604 160.463 20.1259ZM164.982 5.83657C165.55 6.49576 166.119 7.23048 166.682 8.03386C166.131 8.0064 165.569 7.98582 165 7.98582C164.425 7.98582 163.856 7.99953 163.3 8.03386C163.85 7.23048 164.419 6.49576 164.982 5.83657ZM160.457 9.88097C160.157 10.4097 159.857 10.9522 159.576 11.5084C159.295 12.0577 159.032 12.607 158.781 13.1563C158.451 12.2362 158.17 11.3161 157.937 10.4234C158.738 10.2106 159.582 10.0252 160.457 9.88097ZM154.922 18.4779C152.758 17.4411 151.357 16.0815 151.357 15.0034C151.357 13.9254 152.758 12.5589 154.922 11.529C155.448 11.2749 156.023 11.0483 156.616 10.8354C156.965 12.1813 157.423 13.5821 157.992 15.0172C157.43 16.4454 156.977 17.8393 156.635 19.1783C156.029 18.9654 155.455 18.732 154.922 18.4779ZM158.212 28.2902C157.381 27.7546 157.02 25.7153 157.301 23.0922C157.369 22.4468 157.479 21.767 157.613 21.0735C158.812 21.4031 160.12 21.6571 161.496 21.8219C162.322 23.0922 163.178 24.2458 164.04 25.2552C162.046 27.3358 160.175 28.4756 158.903 28.4756C158.628 28.4688 158.396 28.407 158.212 28.2902ZM172.717 23.0579C173.005 25.6809 172.65 27.7203 171.824 28.2628C171.641 28.3864 171.402 28.4413 171.121 28.4413C169.855 28.4413 167.978 27.3083 165.985 25.2415C166.841 24.2321 167.697 23.0854 168.51 21.8151C169.892 21.6503 171.201 21.3962 172.399 21.0597C172.54 21.7533 172.65 22.4193 172.717 23.0579ZM175.071 18.4779C174.545 18.732 173.971 18.9586 173.377 19.1714C173.029 17.8256 172.57 16.4248 172.002 14.9897C172.564 13.5614 173.017 12.1675 173.359 10.8286C173.965 11.0414 174.539 11.2749 175.078 11.529C177.242 12.5658 178.643 13.9254 178.643 15.0034C178.637 16.0815 177.236 17.4479 175.071 18.4779Z" fill="white" fill-opacity="0.5"/>
<path d="M165 18C162.791 18 161 16.6569 161 15C161 13.3431 162.791 12 165 12C167.209 12 169 13.3431 169 15C169 16.6569 167.209 18 165 18Z" fill="white" fill-opacity="0.5"/>
</svg>
