<svg width="145" height="40" viewBox="0 0 145 40" fill="none" xmlns="http://www.w3.org/2000/svg">
<mask id="mask0_554_969" style="mask-type:luminance" maskUnits="userSpaceOnUse" x="0" y="0" width="145" height="40">
<path d="M144.555 0H0.444824V40H144.555V0Z" fill="white"/>
</mask>
<g mask="url(#mask0_554_969)">
<path d="M29.3179 14.9979V26.9413C29.3179 29.3681 28.2085 31.6228 26.3831 32.913L17.8408 38.9523C17.6605 39.0813 17.4199 38.9338 17.4199 38.6942V34.4674C17.4199 33.7731 17.726 33.128 18.2398 32.741L23.6886 28.6554C24.4483 28.084 24.9074 27.1256 24.9074 26.0996V17.867C24.9074 17.2096 25.219 16.6014 25.7272 16.2696L28.4981 14.4756C28.8642 14.2422 29.3179 14.5371 29.3179 15.0101V14.9979Z" fill="#625DF5"/>
<path d="M28.6567 11.4228L16.5893 19.2561C15.7421 19.8029 15.223 20.8166 15.223 21.9164V38.4184C15.223 38.658 14.9934 38.8055 14.8131 38.6826L3.63109 31.3716C1.65812 30.0814 0.444824 27.716 0.444824 25.148V15.1582C0.444824 12.1478 1.87127 9.3647 4.19401 7.85948L14.3703 1.24882C14.8786 0.91706 15.5017 0.91706 16.01 1.24882L18.5567 2.90149C19.1033 3.25782 19.1033 4.14252 18.5567 4.49886L6.40746 12.3813C5.56034 12.9281 5.04113 13.9418 5.04113 15.0415V24.5397C5.04113 25.6395 5.56034 26.6532 6.40746 27.2L10.4354 29.8111C10.5229 29.8663 10.6267 29.7988 10.6267 29.6882V20.2514C10.6267 18.3346 11.5339 16.5713 13.0096 15.6129L24.6834 8.03765C25.2299 7.68131 25.9076 7.71203 26.4268 8.11138L28.7059 9.86234C29.2031 10.2433 29.1758 11.0788 28.6511 11.4228H28.6567Z" fill="#625DF5"/>
<path d="M42.4611 9.7168H46.3583V21.6159C46.3583 22.5925 46.4771 23.4632 46.7148 24.2279C46.9525 24.9834 47.3049 25.6238 47.7721 26.1489C48.2474 26.6741 48.8334 27.0749 49.5301 27.3513C50.2267 27.6185 51.0382 27.7521 51.9643 27.7521C52.8823 27.7521 53.6896 27.6185 54.3862 27.3513C55.0911 27.0749 55.6771 26.6741 56.1443 26.1489C56.6196 25.6238 56.9762 24.9834 57.2139 24.2279C57.4516 23.4632 57.5704 22.5925 57.5704 21.6159V9.7168H61.4676V22.1411C61.4676 23.56 61.2545 24.8498 60.8283 26.0107C60.4021 27.1716 59.7833 28.1667 58.9719 28.9959C58.1605 29.8251 57.1647 30.4654 55.9845 30.9169C54.8124 31.3683 53.4723 31.5941 51.9643 31.5941C50.4563 31.5941 49.1121 31.3683 47.9319 30.9169C46.7598 30.4654 45.7681 29.8251 44.9567 28.9959C44.1454 28.1667 43.5265 27.1716 43.1003 26.0107C42.6741 24.8498 42.4611 23.56 42.4611 22.1411V9.7168Z" fill="#101828"/>
<path d="M64.16 9.7168H68.0818V31.3177H64.16V9.7168Z" fill="#101828"/>
<path d="M69.9136 23.233C69.9136 21.9339 70.1308 20.7638 70.5652 19.7227C70.9996 18.6723 71.5979 17.7786 72.3601 17.0416C73.1305 16.2953 74.0403 15.724 75.0894 15.3279C76.1466 14.9225 77.29 14.7198 78.5194 14.7198C79.044 14.7198 79.5603 14.7566 80.0684 14.8303C80.5848 14.904 81.0765 15.0054 81.5437 15.1344C82.019 15.2634 82.4617 15.42 82.8714 15.6043C83.2894 15.7793 83.6582 15.9728 83.978 16.1847V8.39014H87.6169V31.3178H83.978V29.7837C83.6582 30.0325 83.2812 30.2674 82.8469 30.4886C82.4125 30.7097 81.9453 30.9032 81.4453 31.069C80.9454 31.2348 80.4249 31.3638 79.884 31.456C79.3513 31.5573 78.8226 31.608 78.298 31.608C77.0687 31.608 75.9377 31.4053 74.905 30.9999C73.8804 30.5945 72.9994 30.0233 72.2617 29.2862C71.5241 28.5491 70.9463 27.6692 70.5283 26.6466C70.1184 25.6147 69.9136 24.4768 69.9136 23.233ZM73.737 23.233C73.737 23.8871 73.8518 24.5044 74.0812 25.0849C74.3189 25.6653 74.655 26.1767 75.0894 26.6189C75.5319 27.0519 76.0606 27.3975 76.6753 27.6554C77.2982 27.9042 77.9948 28.0286 78.7652 28.0286C79.257 28.0286 79.7488 27.9779 80.2405 27.8766C80.7323 27.766 81.2036 27.614 81.6543 27.4205C82.1133 27.227 82.5395 26.9921 82.9329 26.7157C83.3345 26.4393 83.6829 26.1306 83.978 25.7897V20.1373C83.609 19.8056 83.2198 19.5246 82.8099 19.2942C82.4002 19.0639 81.9822 18.875 81.556 18.7276C81.1298 18.5802 80.6995 18.4742 80.2652 18.4097C79.8308 18.336 79.4087 18.2992 78.9989 18.2992C78.1628 18.2992 77.417 18.4282 76.7613 18.6861C76.1139 18.9349 75.5648 19.2804 75.1139 19.7227C74.6714 20.1649 74.3312 20.6855 74.0935 21.2843C73.8559 21.8832 73.737 22.5328 73.737 23.233Z" fill="#101828"/>
<path d="M89.8173 23.1085C89.8173 22.0029 90.0183 20.9479 90.4204 19.9437C90.8216 18.9302 91.3998 18.0365 92.1533 17.2626C92.9076 16.4886 93.8292 15.8713 94.9198 15.4107C96.0176 14.95 97.2639 14.7197 98.6569 14.7197C100.042 14.7197 101.288 14.9546 102.394 15.4245C103.509 15.8852 104.452 16.5209 105.222 17.3317C106 18.1425 106.595 19.096 107.005 20.1924C107.423 21.2888 107.632 22.4636 107.632 23.7166C107.632 23.8732 107.627 24.0437 107.619 24.2279C107.619 24.403 107.611 24.5642 107.594 24.7116H93.8746C94.0303 25.1999 94.2802 25.6468 94.6245 26.0522C94.9768 26.4576 95.4153 26.8077 95.9402 27.1025C96.4641 27.3974 97.0708 27.6277 97.7593 27.7935C98.4479 27.9502 99.2102 28.0285 100.046 28.0285C100.882 28.0285 101.714 27.9317 102.542 27.7382C103.37 27.5356 104.161 27.2822 104.914 26.9781L106.144 30.1015C105.669 30.3503 105.185 30.5714 104.694 30.7649C104.21 30.9491 103.702 31.1058 103.169 31.2347C102.644 31.3545 102.091 31.4467 101.509 31.5112C100.935 31.5756 100.329 31.6079 99.6897 31.6079C98.0582 31.6079 96.6287 31.3868 95.3993 30.9445C94.1699 30.5023 93.1407 29.8988 92.3134 29.1341C91.4852 28.3694 90.8625 27.4711 90.4444 26.4392C90.0263 25.4073 89.8173 24.297 89.8173 23.1085ZM103.771 21.5192C103.64 21.0677 103.435 20.6485 103.156 20.2615C102.886 19.8654 102.546 19.5245 102.136 19.2389C101.726 18.944 101.251 18.7137 100.71 18.5478C100.169 18.382 99.575 18.2991 98.9274 18.2991C98.2388 18.2991 97.6117 18.3866 97.0468 18.5617C96.481 18.7367 95.9846 18.9717 95.5585 19.2665C95.1324 19.5613 94.7757 19.9022 94.4893 20.2892C94.2108 20.6762 94.0054 21.0861 93.8746 21.5192H103.771Z" fill="#101828"/>
<path d="M109.107 23.2052C109.107 22.0075 109.3 20.8927 109.685 19.8608C110.078 18.8196 110.648 17.9213 111.394 17.1658C112.147 16.4011 113.065 15.8022 114.147 15.3692C115.238 14.9362 116.48 14.7197 117.873 14.7197C118.479 14.7197 119.09 14.7611 119.704 14.844C120.319 14.927 120.909 15.0467 121.475 15.2034C122.048 15.3508 122.586 15.5304 123.086 15.7424C123.585 15.9451 124.02 16.1708 124.389 16.4195L122.704 19.5014C121.91 19.0868 121.155 18.7828 120.442 18.5893C119.737 18.3958 119.02 18.2991 118.291 18.2991C117.455 18.2991 116.705 18.4235 116.041 18.6722C115.377 18.9118 114.812 19.2527 114.345 19.6949C113.886 20.128 113.532 20.6439 113.287 21.2428C113.049 21.8324 112.93 22.4774 112.93 23.1776C112.93 23.8778 113.057 24.5274 113.312 25.1262C113.573 25.7159 113.938 26.2272 114.406 26.6603C114.881 27.0841 115.45 27.4204 116.115 27.6691C116.786 27.9087 117.533 28.0285 118.352 28.0285C119.253 28.0285 120.102 27.8857 120.897 27.6C121.7 27.3144 122.446 26.9321 123.134 26.453L124.818 29.5349C124.384 29.8297 123.913 30.1061 123.405 30.3641C122.897 30.6128 122.352 30.8294 121.77 31.0136C121.196 31.1979 120.589 31.3407 119.951 31.4421C119.319 31.5526 118.663 31.6079 117.983 31.6079C116.598 31.6079 115.356 31.396 114.258 30.9722C113.16 30.5483 112.229 29.9633 111.468 29.217C110.705 28.4615 110.119 27.5724 109.709 26.5497C109.308 25.527 109.107 24.4122 109.107 23.2052Z" fill="#101828"/>
<path d="M127.179 8.39014H130.819V21.9339L137.604 15.01H143.174L135.588 22.6387L143.653 31.3178H138.195L132.798 25.4442L130.819 27.4343V31.3178H127.179V8.39014Z" fill="#101828"/>
</g>
</svg>
