<svg width="15" height="16" viewBox="0 0 15 16" fill="none" xmlns="http://www.w3.org/2000/svg">
<path d="M14.9562 5.13484C14.947 4.50534 14.8306 3.88082 14.6077 3.29206C14.2177 2.28669 13.4236 1.4917 12.4182 1.10252C11.8369 0.883814 11.2224 0.766562 10.6004 0.753256C9.8004 0.717499 9.54677 0.70752 7.51605 0.70752C5.48534 0.70752 5.22506 0.70752 4.4309 0.753256C3.80971 0.766562 3.19517 0.883814 2.6139 1.10252C1.60852 1.4917 0.813536 2.28669 0.424357 3.29206C0.205652 3.87334 0.0875684 4.48787 0.0759263 5.10906C0.0401684 5.90987 0.0293579 6.1635 0.0293579 8.19421C0.0293579 10.2249 0.0293579 10.4844 0.0759263 11.2794C0.0883999 11.9014 0.205652 12.5151 0.424357 13.098C0.814367 14.1026 1.60852 14.8976 2.61473 15.2867C3.19351 15.5129 3.80805 15.641 4.43173 15.661C5.23254 15.6967 5.48617 15.7075 7.51689 15.7075C9.5476 15.7075 9.80788 15.7075 10.602 15.661C11.2232 15.6485 11.8378 15.5312 12.4199 15.3125C13.4252 14.9225 14.2194 14.1275 14.6094 13.123C14.8281 12.5409 14.9454 11.9272 14.9578 11.3043C14.9936 10.5043 15.0044 10.2507 15.0044 8.21916C15.0027 6.18845 15.0028 5.93066 14.9562 5.13484ZM7.51107 12.0344C5.38722 12.0344 3.66668 10.3139 3.66668 8.19006C3.66668 6.06621 5.38722 4.34567 7.51107 4.34567C9.63325 4.34567 11.3554 6.06621 11.3554 8.19006C11.3554 10.3139 9.63325 12.0344 7.51107 12.0344ZM11.5085 5.09991C11.012 5.09991 10.612 4.69909 10.612 4.20347C10.612 3.70785 11.012 3.30703 11.5085 3.30703C12.0032 3.30703 12.4041 3.70785 12.4041 4.20347C12.4041 4.69909 12.0032 5.09991 11.5085 5.09991Z" fill="black" fill-opacity="0.5"/>
<path d="M7.51105 10.6873C8.89023 10.6873 10.0083 9.56928 10.0083 8.1901C10.0083 6.81092 8.89023 5.69287 7.51105 5.69287C6.13187 5.69287 5.01382 6.81092 5.01382 8.1901C5.01382 9.56928 6.13187 10.6873 7.51105 10.6873Z" fill="black" fill-opacity="0.5"/>
</svg>
