<svg width="21" height="21" viewBox="0 0 21 21" fill="none" xmlns="http://www.w3.org/2000/svg">
<path d="M19.4117 0.690918H1.01172C0.569216 0.690918 0.211716 1.04842 0.211716 1.49092V19.8909C0.211716 20.3334 0.569216 20.6909 1.01172 20.6909H19.4117C19.8542 20.6909 20.2117 20.3334 20.2117 19.8909V1.49092C20.2117 1.04842 19.8542 0.690918 19.4117 0.690918ZM6.14422 17.7334H3.17672V8.18842H6.14422V17.7334ZM4.66172 6.88342C4.32153 6.88342 3.98899 6.78254 3.70613 6.59355C3.42328 6.40455 3.20283 6.13592 3.07264 5.82163C2.94246 5.50734 2.9084 5.16151 2.97477 4.82786C3.04113 4.49422 3.20495 4.18774 3.44549 3.94719C3.68604 3.70665 3.99251 3.54283 4.32616 3.47647C4.65981 3.4101 5.00564 3.44416 5.31993 3.57435C5.63422 3.70453 5.90285 3.92498 6.09184 4.20784C6.28084 4.49069 6.38172 4.82323 6.38172 5.16342C6.37922 6.11342 5.60922 6.88342 4.66172 6.88342ZM17.2542 17.7334H14.2892V13.0909C14.2892 11.9834 14.2692 10.5609 12.7467 10.5609C11.2042 10.5609 10.9667 11.7659 10.9667 13.0109V17.7334H8.00422V8.18842H10.8492V9.49342H10.8892C11.2842 8.74342 12.2517 7.95092 13.6967 7.95092C16.7017 7.95092 17.2542 9.92842 17.2542 12.4984V17.7334Z" fill="white" fill-opacity="0.8"/>
</svg>
