<svg width="21" height="21" viewBox="0 0 21 21" fill="none" xmlns="http://www.w3.org/2000/svg">
<path d="M6.94507 17.3576C8.17731 17.3988 9.40532 17.1926 10.5565 16.7512C11.7077 16.3097 12.7587 15.642 13.6475 14.7874C14.5362 13.9329 15.2446 12.9088 15.7309 11.7758C16.2171 10.6428 16.4713 9.42383 16.4784 8.19091C17.0431 7.49209 17.4624 6.68744 17.7117 5.82425C17.7303 5.75605 17.7288 5.68392 17.7074 5.61656C17.686 5.54919 17.6455 5.48946 17.5909 5.44455C17.5363 5.39964 17.4699 5.37147 17.3997 5.36344C17.3295 5.3554 17.2584 5.36783 17.1951 5.39925C16.8996 5.54146 16.567 5.5874 16.2441 5.53059C15.9212 5.47378 15.6242 5.31708 15.3951 5.08258C15.1025 4.76223 14.7487 4.50386 14.3544 4.32277C13.9602 4.14168 13.5337 4.04157 13.1 4.02836C12.6664 4.01515 12.2345 4.08911 11.83 4.24586C11.4255 4.40261 11.0566 4.63897 10.7451 4.94091C10.3186 5.35396 10.0062 5.87032 9.83824 6.43981C9.67032 7.0093 9.65257 7.61254 9.78673 8.19091C6.99507 8.35758 5.0784 7.03258 3.54507 5.21591C3.499 5.16375 3.43875 5.12612 3.37165 5.10764C3.30456 5.08915 3.23354 5.0906 3.16726 5.11181C3.10097 5.13302 3.0423 5.17308 2.99841 5.22708C2.95451 5.28108 2.92729 5.3467 2.92007 5.41591C2.62796 7.03627 2.83868 8.7072 3.52392 10.2043C4.20916 11.7014 5.33611 12.953 6.7534 13.7909C5.8031 14.8808 4.46858 15.5615 3.0284 15.6909C2.95125 15.7037 2.88002 15.7403 2.82469 15.7956C2.76937 15.8509 2.73271 15.9221 2.71985 15.9992C2.707 16.0764 2.71858 16.1556 2.75299 16.2258C2.78739 16.2961 2.8429 16.3538 2.91173 16.3909C4.16467 17.0171 5.54443 17.3477 6.94507 17.3576Z" fill="white" fill-opacity="0.8"/>
</svg>
