<svg width="16" height="16" viewBox="0 0 16 16" fill="none" xmlns="http://www.w3.org/2000/svg">
<path d="M5.07937 13.2075C6.00355 13.2384 6.92456 13.0838 7.78796 12.7527C8.65135 12.4216 9.43962 11.9208 10.1062 11.2799C10.7727 10.639 11.3041 9.87095 11.6687 9.02119C12.0334 8.17144 12.224 7.2572 12.2294 6.33252C12.6529 5.8084 12.9674 5.20491 13.1544 4.55752C13.1683 4.50637 13.1672 4.45227 13.1511 4.40175C13.1351 4.35123 13.1047 4.30643 13.0638 4.27275C13.0228 4.23906 12.973 4.21794 12.9203 4.21191C12.8677 4.20588 12.8144 4.21521 12.7669 4.23877C12.5453 4.34543 12.2958 4.37988 12.0536 4.33727C11.8115 4.29466 11.5887 4.17714 11.4169 4.00127C11.1975 3.761 10.9321 3.56722 10.6364 3.43141C10.3407 3.29559 10.0208 3.22051 9.69559 3.2106C9.37037 3.20069 9.04647 3.25616 8.74308 3.37373C8.4397 3.49129 8.16299 3.66856 7.92937 3.89502C7.60949 4.2048 7.37519 4.59207 7.24925 5.01919C7.12331 5.4463 7.11 5.89874 7.21062 6.33252C5.11687 6.45752 3.67937 5.46377 2.52937 4.10127C2.49482 4.06214 2.44963 4.03392 2.39931 4.02006C2.34899 4.0062 2.29572 4.00728 2.24601 4.02319C2.1963 4.0391 2.15229 4.06914 2.11937 4.10964C2.08645 4.15014 2.06603 4.19935 2.06062 4.25127C1.84154 5.46653 1.99957 6.71973 2.5135 7.84256C3.02744 8.96539 3.87265 9.90406 4.93562 10.5325C4.22289 11.3499 3.222 11.8604 2.14187 11.9575C2.084 11.9671 2.03058 11.9946 1.98909 12.036C1.94759 12.0775 1.9201 12.1309 1.91046 12.1887C1.90082 12.2466 1.9095 12.306 1.93531 12.3587C1.96111 12.4114 2.00274 12.4547 2.05437 12.4825C2.99407 12.9521 4.02889 13.2001 5.07937 13.2075Z" fill="#231F20" fill-opacity="0.5"/>
</svg>
