<svg width="21" height="21" viewBox="0 0 21 21" fill="none" xmlns="http://www.w3.org/2000/svg">
<path d="M20.1473 6.60385C20.1351 5.76311 19.9796 4.92903 19.682 4.14272C19.1611 2.79998 18.1004 1.73823 16.7577 1.21846C15.9814 0.926369 15.1606 0.769772 14.3299 0.752002C13.2615 0.704245 12.9227 0.690918 10.2106 0.690918C7.49848 0.690918 7.15085 0.690918 6.09021 0.752002C5.26058 0.769772 4.43984 0.926369 3.66352 1.21846C2.32078 1.73823 1.25903 2.79998 0.739259 4.14272C0.447166 4.91904 0.289459 5.73978 0.27391 6.56942C0.226154 7.63894 0.211716 7.97768 0.211716 10.6898C0.211716 13.4019 0.211716 13.7484 0.27391 14.8102C0.29057 15.6409 0.447166 16.4606 0.739259 17.2391C1.26014 18.5807 2.32078 19.6425 3.66463 20.1623C4.43762 20.4644 5.25836 20.6354 6.09133 20.662C7.16085 20.7098 7.49959 20.7242 10.2117 20.7242C12.9238 20.7242 13.2715 20.7242 14.3321 20.662C15.1617 20.6454 15.9825 20.4888 16.7599 20.1967C18.1027 19.6758 19.1633 18.6141 19.6842 17.2724C19.9763 16.495 20.1329 15.6754 20.1495 14.8435C20.1973 13.7751 20.2117 13.4364 20.2117 10.7231C20.2095 8.011 20.2095 7.66671 20.1473 6.60385ZM10.2039 15.8186C7.36743 15.8186 5.06956 13.5208 5.06956 10.6843C5.06956 7.84774 7.36743 5.54987 10.2039 5.54987C13.0382 5.54987 15.3383 7.84774 15.3383 10.6843C15.3383 13.5208 13.0382 15.8186 10.2039 15.8186ZM15.5427 6.5572C14.8796 6.5572 14.3454 6.02188 14.3454 5.35995C14.3454 4.69803 14.8796 4.16271 15.5427 4.16271C16.2035 4.16271 16.7388 4.69803 16.7388 5.35995C16.7388 6.02188 16.2035 6.5572 15.5427 6.5572Z" fill="white" fill-opacity="0.8"/>
<path d="M10.2039 14.02C12.0459 14.02 13.5391 12.5268 13.5391 10.6848C13.5391 8.84282 12.0459 7.34961 10.2039 7.34961C8.36194 7.34961 6.86873 8.84282 6.86873 10.6848C6.86873 12.5268 8.36194 14.02 10.2039 14.02Z" fill="white" fill-opacity="0.8"/>
</svg>
