<svg width="20" height="31" viewBox="0 0 20 31" fill="none" xmlns="http://www.w3.org/2000/svg">
<path d="M15 20.2075C17.7614 20.2075 20 17.9689 20 15.2075C20 12.4461 17.7614 10.2075 15 10.2075C12.2386 10.2075 10 12.4461 10 15.2075C10 17.9689 12.2386 20.2075 15 20.2075Z" fill="#19BCFE"/>
<path fill-rule="evenodd" clip-rule="evenodd" d="M5 30.2075C7.76142 30.2075 10 27.9689 10 25.2075C10 24.4537 10 22.787 10 20.2075C7.7538 20.2075 6.08713 20.2075 5 20.2075C2.23858 20.2075 0 22.4461 0 25.2075C0 27.9689 2.23858 30.2075 5 30.2075Z" fill="#09CF83"/>
<path fill-rule="evenodd" clip-rule="evenodd" d="M5 20.2075H10V10.2075C7.58714 10.2075 5.92047 10.2075 5 10.2075C2.23858 10.2075 0 12.4461 0 15.2075C0 17.9689 2.23858 20.2075 5 20.2075Z" fill="#A259FF"/>
<path fill-rule="evenodd" clip-rule="evenodd" d="M5 10.2075H10V0.20752C7.58714 0.20752 5.92047 0.20752 5 0.20752C2.23858 0.20752 0 2.4461 0 5.20752C0 7.96894 2.23858 10.2075 5 10.2075Z" fill="#F24E1E"/>
<path fill-rule="evenodd" clip-rule="evenodd" d="M15 10.2075H10V0.20752H15C17.7614 0.20752 20 2.4461 20 5.20752C20 7.96894 17.7614 10.2075 15 10.2075Z" fill="#FF7262"/>
</svg>
